<?xml version="1.0" encoding="UTF-8"?><svg id="Layer_1" xmlns="http://www.w3.org/2000/svg" xmlns:xlink="http://www.w3.org/1999/xlink" viewBox="0 0 458.79 413.82"><defs><style>.cls-1,.cls-2,.cls-3{fill:none;}.cls-4{letter-spacing:0em;}.cls-5{letter-spacing:.02em;}.cls-6{letter-spacing:.02em;}.cls-7{letter-spacing:-.02em;}.cls-8{letter-spacing:-.01em;}.cls-9{fill:url(#linear-gradient);}.cls-10{clip-path:url(#clippath);}.cls-11{letter-spacing:0em;}.cls-12{letter-spacing:0em;}.cls-13{letter-spacing:0em;}.cls-14{fill:#010101;}.cls-15{fill:#f6d2a2;}.cls-16{fill:#ef9325;}.cls-17,.cls-18,.cls-19{fill:#fff;}.cls-20{fill:#e5e5e5;}.cls-21{fill:#d2e065;}.cls-22{fill:#c6b199;}.cls-23{fill:#c97929;}.cls-24{fill:#0f7f91;}.cls-25,.cls-26,.cls-27{fill:#231f20;}.cls-28{fill:#9b9b9b;}.cls-29{fill:#961a1e;}.cls-30{fill:#595a5a;}.cls-31{fill:#353635;}.cls-32{fill:#37abc7;}.cls-33{fill:#53b956;}.cls-34{letter-spacing:-.05em;}.cls-26{font-family:MyriadPro-Bold, 'Myriad Pro';font-weight:700;}.cls-26,.cls-27{font-size:11px;}.cls-35{letter-spacing:.01em;}.cls-36{letter-spacing:0em;}.cls-37{letter-spacing:0em;}.cls-38{letter-spacing:0em;}.cls-39{letter-spacing:0em;}.cls-40{clip-path:url(#clippath-1);}.cls-41{letter-spacing:-.04em;}.cls-42{letter-spacing:0em;}.cls-18{opacity:.5;}.cls-18,.cls-19{isolation:isolate;}.cls-43{letter-spacing:-.01em;}.cls-19{opacity:.6;}.cls-44{letter-spacing:-.02em;}.cls-45{letter-spacing:-.04em;}.cls-46{letter-spacing:-.01em;}.cls-47{letter-spacing:-.02em;}.cls-48{letter-spacing:.02em;}.cls-2{stroke:#231f20;}.cls-2,.cls-3{stroke-miterlimit:10;stroke-width:2px;}.cls-3{stroke:#010101;}.cls-49{letter-spacing:0em;}.cls-50{letter-spacing:0em;}.cls-51{fill:url(#linear-gradient-2);}.cls-52{letter-spacing:0em;}.cls-53{letter-spacing:.02em;}.cls-54{letter-spacing:0em;}.cls-55{letter-spacing:0em;}.cls-56{letter-spacing:-.01em;}.cls-57{letter-spacing:-.01em;}.cls-27{font-family:MyriadPro-Regular, 'Myriad Pro';}.cls-58{letter-spacing:0em;}.cls-59{letter-spacing:0em;}.cls-60{letter-spacing:0em;}.cls-61{letter-spacing:.03em;}.cls-62{letter-spacing:-.03em;}.cls-63{letter-spacing:0em;}.cls-64{letter-spacing:-.03em;}.cls-65{letter-spacing:.01em;}.cls-66{letter-spacing:.01em;}.cls-67{letter-spacing:0em;}.cls-68{letter-spacing:-.03em;}.cls-69{letter-spacing:0em;}</style><clipPath id="clippath"><path class="cls-1" d="m51.92,157.22c23.52.68,42.38,19.96,42.38,43.65h0c0,7.47-1.87,14.5-5.18,20.64h0l6.02,3.46c3.89-7.17,6.1-15.38,6.1-24.1h0c0-27.51-21.97-49.9-49.32-50.58h0v6.94ZM.03,200.86c0,8.72,2.21,16.93,6.1,24.1h0l6.02-3.46c-3.3-6.14-5.18-13.18-5.18-20.64h0c0-23.68,18.85-42.96,42.37-43.65h0v-6.94C21.99,150.96.03,173.35.03,200.86m9.57,0c0,22.66,18.37,41.04,41.04,41.04h0c22.66,0,41.04-18.37,41.04-41.04h0c0-22.66-18.37-41.04-41.04-41.04h0c-22.66,0-41.04,18.37-41.04,41.04m41.03,43.66c-15.73,0-29.51-8.31-37.2-20.79h0l-6.01,3.46c8.88,14.55,24.91,24.27,43.21,24.27h0c18.3,0,34.33-9.71,43.22-24.27h0l-6.02-3.45c-7.69,12.47-21.47,20.79-37.2,20.79"/></clipPath><linearGradient id="linear-gradient" x1="-146.48" y1="498.52" x2="-146.09" y2="498.52" gradientTransform="translate(-142187.02 38798.94) rotate(91.17) scale(283.68 -283.68)" gradientUnits="userSpaceOnUse"><stop offset="0" stop-color="#2dabe2"/><stop offset="1" stop-color="#015c86"/></linearGradient><clipPath id="clippath-1"><path class="cls-1" d="m51.04,166.14c-.53-.18-1.09-.28-1.68-.28h0c-.39,0-.78.04-1.16.13h0c-1.34.31-2.48,1.13-3.21,2.3h0c-.5.8-.76,1.7-.78,2.62h0c-2.49,2.02-4.02,5.08-4.02,8.44h0c0,1.58.35,3.14,1.01,4.57h0c-.72.24-1.37.68-1.89,1.27h0l-8.05,9.26c-.05.05-.09.11-.14.17h0l-8.37,9.62s-.09.1-.14.15h0l-.79.9c-.12.13-.22.26-.32.39h0c-1.52,2.08-2.31,4.54-2.31,7.13h0c0,2.41,1.97,4.37,4.38,4.37h0s11.7-.03,11.7-.03h0c.28,1.04.65,2.03,1.12,2.95h0c.66,1.31,1.92,2.18,3.34,2.37h0c.52,5.78,5.39,10.33,11.31,10.33h0c5.92,0,10.79-4.55,11.31-10.33h0c1.43-.18,2.7-1.06,3.36-2.37h0c.47-.92.84-1.91,1.12-2.95h0s11.64.03,11.64.03h0c1.16,0,2.27-.46,3.09-1.28h0c.82-.82,1.29-1.93,1.29-3.09h0c0-2.58-.79-5.05-2.31-7.13h0c-.09-.12-.19-.25-.3-.36h0l-.82-.93c-.05-.05-.09-.1-.14-.15h0l-8.37-9.62c-.04-.06-.09-.11-.14-.17h0l-8.05-9.26c-.5-.58-1.14-1-1.83-1.25h0c.67-1.43,1.02-3,1.02-4.59h0c0-3.37-1.53-6.45-4.04-8.46h0c-.02-.91-.29-1.8-.78-2.6h0c-.73-1.17-1.87-1.99-3.22-2.3h0c-.38-.09-.77-.13-1.16-.13h0c-.59,0-1.15.1-1.68.28m.53,1.55c.37-.13.75-.19,1.15-.19h0c.27,0,.53.03.79.09h0c.92.21,1.69.77,2.19,1.57h0c.33.54.52,1.15.53,1.77h0c.01.48.24.94.61,1.24h0c2.18,1.75,3.43,4.37,3.43,7.18h0c0,1.36-.29,2.66-.87,3.89h0c-.2.42-.21.9-.03,1.33h0c.18.43.53.76.96.91h0c.44.16.84.43,1.14.78h0l8.05,9.26s.12.15.14.17h0l8.37,9.62s.12.13.15.16h0l.82.93c.09.09.15.17.21.25h0c1.31,1.8,2,3.92,1.99,6.15h0c0,.73-.29,1.42-.81,1.93h0c-.52.51-1.2.8-1.93.8h0s-11.64-.03-11.64-.03h0c-.74,0-1.39.5-1.59,1.22h0c-.25.93-.58,1.82-1,2.63h0c-.41.81-1.2,1.37-2.1,1.48h0c-.77.1-1.36.71-1.43,1.48h0c-.45,4.95-4.7,8.83-9.68,8.83h0c-4.98,0-9.23-3.88-9.68-8.84h0c-.07-.77-.66-1.38-1.42-1.48h0c-.9-.12-1.68-.67-2.09-1.48h0c-.41-.82-.75-1.7-1-2.63h0c-.19-.72-.84-1.22-1.59-1.22h0s-11.71.03-11.71.03h0c-1.5,0-2.73-1.23-2.73-2.73h0c0-2.23.68-4.36,1.99-6.15h0c.06-.09.13-.17.2-.25h0s.82-.94.82-.94h0s.13-.13.14-.16h0l8.37-9.62s.11-.13.14-.17h0l8.05-9.26c.32-.36.72-.64,1.18-.79h0c.44-.15.8-.48.98-.91h0c.18-.43.17-.91-.02-1.34h0c-.57-1.22-.86-2.53-.86-3.87h0c0-2.8,1.24-5.41,3.41-7.16h0c.38-.3.6-.76.61-1.24h0c.01-.62.2-1.24.53-1.78h0c.5-.8,1.28-1.35,2.19-1.57h0c.26-.06.53-.09.79-.09h0c.39,0,.78.06,1.15.19h0c.17.06.35.09.53.09h0c.18,0,.36-.03.53-.09"/></clipPath><linearGradient id="linear-gradient-2" x1="-147.57" y1="498.68" x2="-147.19" y2="498.68" gradientTransform="translate(-101662.69 32149.83) rotate(89.02) scale(205.03 -205.03)" gradientUnits="userSpaceOnUse"><stop offset="0" stop-color="#fff"/><stop offset="1" stop-color="#2dabe2"/></linearGradient></defs><g><g><path class="cls-14" d="m246.67,245.99c-1.08,0-1.93-.35-2.57-1.04-.64-.7-.96-1.78-.96-3.24v-8.1h-1.72c-.31,0-.55-.08-.72-.23-.16-.15-.24-.35-.24-.6s.08-.44.24-.59c.16-.16.39-.24.7-.24h1.73l.34-3.99c.02-.3.15-.56.39-.77.25-.22.53-.32.83-.32.26,0,.51.09.7.27.19.17.28.42.28.75v4.08h2.59c.31,0,.54.08.69.24.16.16.24.37.24.62,0,.53-.31.8-.93.8h-2.59v7.66c0,.97.14,1.66.41,2.1.27.42.7.63,1.29.63h.16l.96-.04h.08c.31,0,.55.1.73.29s.27.43.27.69c0,.23-.05.43-.15.58-.1.14-.26.24-.48.31-.21.07-.42.11-.63.13-.21.02-.48.03-.82.03h-.83Zm7.14-.2c-.35,0-.64-.1-.89-.31s-.37-.5-.37-.87v-11.6c0-.38.13-.66.38-.86.25-.21.57-.32.9-.31.35,0,.64.1.89.31.25.2.38.47.38.83v1.69c.21-.86.7-1.62,1.39-2.18.71-.59,1.56-.89,2.56-.89.3,0,.53.11.7.34.18.23.27.49.27.79,0,.26-.08.52-.24.73-.16.2-.39.3-.69.3-1.26,0-2.25.33-2.95.99-.69.66-1.04,1.53-1.04,2.63v7.24c0,.38-.13.67-.39.87-.25.21-.57.32-.9.31h0Zm34.39,0c-.33,0-.65-.11-.9-.32-.24-.22-.36-.53-.36-.93v-10.92h-1.84c-.31,0-.54-.08-.69-.23-.15-.16-.23-.37-.22-.59,0-.24.07-.44.22-.6s.38-.24.69-.24h1.84v-1.79c0-1.68.36-2.87,1.07-3.57.71-.71,1.7-1.07,2.95-1.07h1.71c.27,0,.48.1.63.3.16.19.24.41.24.67s-.08.49-.24.67c-.15.19-.36.28-.65.28h-1.19c-.4,0-.72.04-.94.11-.22.07-.43.22-.6.46-.17.23-.29.58-.35,1.03-.06.44-.08,1.04-.08,1.8v1.1h2.38c.31,0,.53.08.68.24.15.16.22.36.22.6,0,.54-.3.82-.9.82h-2.38v10.92c0,.39-.13.7-.38.93-.25.22-.55.32-.9.32h0Zm8.87-17.23c-.5,0-.89-.14-1.19-.42-.3-.29-.45-.67-.45-1.12s.15-.83.45-1.12c.31-.29.71-.44,1.21-.44s.88.15,1.18.44c.3.28.45.66.45,1.12s-.15.83-.45,1.12c-.3.28-.7.42-1.19.42Zm-.01,17.23c-.33,0-.64-.11-.89-.32-.24-.22-.36-.54-.36-.96v-11.43c0-.39.13-.7.38-.93.25-.22.58-.34.91-.34.32,0,.64.12.87.34.25.23.38.53.38.93v11.44c0,.39-.13.71-.39.94-.25.22-.57.34-.9.34h0Zm6.76-.01c-.33,0-.64-.11-.89-.32-.24-.22-.36-.54-.36-.96v-17.54c0-.39.13-.7.38-.93.25-.22.58-.34.91-.34.32,0,.64.12.87.34.25.23.38.53.38.93v10.76l6.38-5.85c.21-.18.43-.27.66-.27.3,0,.56.12.79.35.23.23.35.5.35.79,0,.26-.11.5-.34.72l-5.1,4.57,5.58,5.88c.2.19.31.46.31.73,0,.3-.12.57-.36.8-.23.23-.51.35-.82.35-.33,0-.61-.13-.84-.39l-6.61-7.03v6.14c0,.4-.13.72-.39.94-.25.22-.57.34-.9.34h0Z"/><path class="cls-32" d="m265.62,245.79c-1.62-.14-2.86-.63-3.76-1.48-.92-.87-1.31-2.01-1.15-3.33.18-1.53.9-2.6,2.17-3.23.98-.49,1.96-.67,3.55-.67,1.13,0,2.08.09,3.52.34l.69.11s.05-.11.12-.57c.12-.82.14-1.11.11-1.44-.04-.38-.09-.57-.23-.86-.38-.77-1.26-1.24-2.69-1.42-.59-.05-1.18-.06-1.76-.01-.69.08-1.07.18-1.92.5-.5.19-.5.19-.7.18-.34-.02-.58-.17-.73-.48-.06-.13-.07-.18-.07-.35,0-.26.07-.39.3-.61.52-.49,1.39-.9,2.28-1.08.56-.11.84-.14,1.59-.14.77,0,1.26.05,1.95.17,1.14.21,2,.58,2.65,1.15.19.17.49.49.6.68.04.06.08.11.09.11s.07-.07.14-.16c.99-1.26,2.65-1.97,4.6-1.97,1.38,0,2.66.35,3.61.98.76.5,1.37,1.28,1.62,2.04.14.44.16.6.17,1.24l-.03.79c-.22,1.25-.75,2.12-1.68,2.74-.74.5-1.67.79-2.9.9-.61.06-1.74.05-2.47-.01l-1.7-.22-1.21-.2c-.04.21-.07.41-.1.62-.07.36-.1.73-.09,1.1,0,.44,0,.51.06.71.17.65.54,1.08,1.22,1.41.66.33,1.36.47,2.41.49l.99-.03c.71-.08,1.03-.16,1.97-.5l.53-.17c.17-.01.34.02.49.09.26.15.43.42.45.72,0,.31-.11.5-.41.74-.74.59-1.68.95-2.8,1.07-.4.04-1.31.05-1.76.01-1.24-.11-2.11-.32-2.89-.71-.62-.31-1.08-.69-1.44-1.16l-.16-.22s-.06.06-.13.15c-.29.38-.75.8-1.19,1.08-.64.41-1.55.73-2.47.85-.47.04-.95.06-1.42.05h0Zm1.59-1.78c.75-.17,1.43-.54,1.92-1.07.44-.48.8-1.21,1.01-2,.11-.45.3-1.7.26-1.73-.02,0-.12-.03-.22-.04l-.67-.08-3.04-.25c-1.01.06-1.43.15-2.04.44-.31.15-.53.31-.7.52-.24.3-.41.65-.49,1.02-.08.44-.08.89-.01,1.33.12.42.26.66.57.98.43.44.99.72,1.69.87.36.07.35.07.95.06.43,0,.6-.02.78-.06h0Zm9.88-5.86c.63-.06,1.02-.15,1.5-.38.4-.19.63-.38.85-.7.32-.47.45-.92.44-1.59,0-.48-.04-.67-.21-1.01-.37-.76-1.22-1.31-2.35-1.49-.28-.05-1.04-.04-1.32.01-.56.1-1.02.29-1.44.57-.76.52-1.29,1.3-1.58,2.34-.12.41-.15.57-.25,1.28l-.1.65h.13s1.75.23,1.75.23l.86.1c.57.04,1.15.03,1.72,0h0Z"/></g><g><path class="cls-23" d="m257.6,180.9s4.6-4,18.21-4c12.49,0,16,2.83,19.56,4l-18.6,9.07-19.18-9.07Z"/><path class="cls-15" d="m255.66,192.94c.08,1.73,1.82.93,2.61.39.75-.51.96-.09,1.03-1.1.04-.67.12-1.34.08-2.01-1.13-.1-2.36.17-3.28.84-.48.35-1.37,1.45-.43,1.88"/><path class="cls-22" d="m255.66,192.94c.25-.09.52-.16.69-.39"/><path class="cls-32" d="m259.67,172.27c-6.65-1.87-1.7-10.31,3.63-6.84l-3.63,6.84Zm29.54-7.47c5.26-3.69,10.02,4.64,3.9,6.73l-3.9-6.73Z"/><path class="cls-15" d="m290.34,214.28c1.34.83,3.78,3.32,1.77,4.54-1.93,1.76-3.01-1.93-4.7-2.45.73-.99,1.65-1.89,2.92-2.09h0Zm-23.88,2.82c-1.57.24-2.45,1.66-3.76,2.37-1.23.73-1.7-.23-1.82-.43-.2-.09-.18.08-.48-.22-1.14-1.8,1.19-3.12,2.41-4.01,1.69-.34,2.75,1.12,3.65,2.29h0Z"/><path class="cls-24" d="m259.94,169.94c-.88-.46-1.52-1.09-.98-2.11.5-.94,1.42-.84,2.3-.37l-1.31,2.48Zm31.78-.88c.88-.46,1.52-1.09.98-2.11-.5-.94-1.42-.84-2.3-.37l1.31,2.48Z"/><path class="cls-15" d="m297.76,192.72c-.08,1.73-1.82.93-2.61.39-.75-.51-.96-.09-1.03-1.1-.04-.67-.12-1.34-.08-2.01,1.13-.1,2.36.17,3.28.84.48.35,1.37,1.45.43,1.88"/><path class="cls-22" d="m297.76,192.72c-.25-.09-.52-.16-.69-.39"/><path class="cls-32" d="m276.04,161.29c6.66,0,12.9.95,16.15,7.34,2.92,7.16,1.88,14.88,2.33,22.44.38,6.5,1.23,14-1.79,20.02-3.17,6.33-11.11,7.93-17.64,7.69-5.13-.18-11.34-1.86-14.23-6.54-3.4-5.49-1.79-13.67-1.54-19.78.29-7.24-1.96-14.51.42-21.59,2.47-7.35,9.14-9.01,16.31-9.58"/><path class="cls-17" d="m277.22,170.22c1.2,6.94,12.55,5.1,10.92-1.89-1.46-6.27-11.32-4.54-10.92,1.89m-13.57,1.12c1.55,6.04,11.23,4.49,10.87-1.57-.43-7.26-12.35-5.86-10.87,1.57m15.77,6.97c0,.93.22,1.83.03,2.87-.23.44-.68.48-1.07.66-.54-.08-1-.44-1.21-.94-.14-1.1.05-2.16.09-3.25l2.16.66Z"/><ellipse class="cls-14" cx="266.32" cy="170.35" rx="1.64" ry="1.77"/><ellipse class="cls-17" cx="267.06" cy="170.75" rx=".39" ry=".45"/><ellipse class="cls-14" cx="280.02" cy="169.91" rx="1.61" ry="1.77"/><ellipse class="cls-17" cx="280.75" cy="170.31" rx=".38" ry=".45"/><path class="cls-17" d="m274.75,178.44c-.71,1.73.4,5.18,2.33,2.63-.14-1.1.05-2.16.09-3.25l-2.42.62Z"/><path class="cls-15" d="m274.64,175.12c-1.33.11-2.42,1.69-1.73,2.94.92,1.65,2.96-.15,4.23.02,1.46.03,2.67,1.55,3.84.27,1.31-1.42-.56-2.79-2.03-3.41l-4.32.17Z"/><path class="cls-16" d="m257.6,180.9s.42,4.55.39,6.52,1.85.72,1.95,3.81-1.14,2.5-1.79,4.01-1.1,8.59-1.1,8.59c0,0,.67,1.32,2.76,2.51s5.46,1.86,8.37,1.73,4.99-.75,5.51-1.1,1.38-1.43,1.71-2.28,1-7.78.96-11.76-.7-7.64-.7-7.64l-18.05-4.4Z"/><path class="cls-20" d="m276.04,200.24c-8.58.96-18.53-1.69-18.53-1.69,0,0,.15-2.68.79-3.62,8.92,2.76,17.92,1.88,17.92,1.88.13,1.25.04,2.25-.18,3.43h0Zm-1.08,5.28c-8.58.96-17.91-1.79-17.91-1.79,0,0-.03-2.57.31-3.71,8.92,2.76,18.45,2.07,18.45,2.07-.08,1.36-.27,2.7-.84,3.43h0Z"/><path class="cls-16" d="m295.37,180.9l-.03,6.52c.03,1.96-1.14.72-1.24,3.81s1.16,2.5,1.82,4.01,1.11,8.59,1.11,8.59c0,0-.68,1.32-2.8,2.51s-5.52,1.86-8.47,1.73-5.05-.75-5.58-1.1-1.4-1.43-1.73-2.28-1.02-7.78-.97-11.76.71-7.64.71-7.64l17.18-4.4Z"/><path class="cls-20" d="m277.8,200.24c8.68.96,18.76-1.69,18.76-1.69,0,0-.15-2.68-.8-3.62-9.03,2.76-18.14,1.88-18.14,1.88-.14,1.25-.04,2.25.18,3.43h0Zm1.09,5.28c8.68.96,18.14-1.79,18.14-1.79,0,0,.03-2.57-.31-3.71-9.03,2.76-18.68,2.07-18.68,2.07.08,1.36.28,2.7.85,3.43h0Z"/><path class="cls-21" d="m298.84,189.26c-.27.51-.8.75-1.19.55l-.31-.16c-.39-.21-.49-.78-.22-1.29l6.08-11.45c.27-.51.8-.75,1.19-.55l.31.16c.39.21.49.78.22,1.29l-6.08,11.45Z"/><path class="cls-14" d="m295.97,194.67c-.16.3-.6.37-.99.16l-.31-.16c-.39-.21-.58-.61-.42-.91l2.85-5.37c.16-.3.6-.37.99-.16l.31.16c.39.21.58.61.42.91l-2.85,5.37Z"/><path class="cls-28" d="m298.5,188.19l-.31-.16c-.39-.21-.79-.22-.89-.03l-.18.34c.1-.19.5-.18.89.03l.31.16c.39.21.62.53.52.72l.18-.34c.1-.19-.13-.51-.52-.72Z"/><ellipse class="cls-15" cx="295.93" cy="191.29" rx="1.03" ry="1.34" transform="translate(13.43 401.92) rotate(-69.59)"/><path class="cls-21" d="m254.8,189.44c.25.52.77.79,1.17.6l.32-.15c.4-.19.52-.76.28-1.28l-5.54-11.72c-.25-.52-.77-.79-1.17-.6l-.32.15c-.4.19-.52.76-.28,1.28l5.54,11.72Z"/><path class="cls-14" d="m257.42,194.98c.14.3.58.4.98.21l.32-.15c.4-.19.6-.59.46-.89l-2.6-5.5c-.14-.3-.58-.4-.98-.21l-.32.15c-.4.19-.6.59-.46.89l2.6,5.5Z"/><path class="cls-28" d="m255.19,188.39l.32-.15c.4-.19.8-.18.89.02l.17.35c-.09-.2-.49-.2-.89-.02l-.32.15c-.4.19-.65.5-.55.7l-.17-.35c-.09-.2.15-.51.55-.7h0Z"/><ellipse class="cls-15" cx="257.88" cy="191.44" rx="1.34" ry="1.03" transform="translate(-50.58 101.97) rotate(-20.41)"/><path class="cls-29" d="m260.45,174.88c-.26.48-.89.64-1.39.37l-.58-.32c-.51-.28-.7-.89-.44-1.37l6.04-10.98c.26-.48.89-.64,1.39-.37l.58.32c.51.28.64.8.44,1.37-2.12,6.1-6.04,10.98-6.04,10.98Z"/><path class="cls-30" d="m262.04,168.61c1.84-3.34,3.04-6.21,2.76-6.54h0s-.02-.02-.02-.02h0c-2.82-1.53-6.63-.02-8.5,3.39s-1.12,7.43,1.68,8.99h0s.02.01.03.02h0c.43.06,2.21-2.5,4.05-5.84h0Z"/><path class="cls-29" d="m292.34,174.9c.25.49.87.67,1.38.41l.59-.3c.51-.26.73-.87.48-1.36l-5.72-11.15c-.25-.49-.87-.67-1.38-.41l-.59.3c-.51.26-.66.78-.48,1.36,1.94,6.16,5.72,11.15,5.72,11.15Z"/><path class="cls-30" d="m290.92,168.59c-1.74-3.39-2.87-6.29-2.57-6.61h0s.02-.02.02-.02h0c2.87-1.45,6.62.17,8.4,3.64,1.78,3.46.91,7.45-1.94,8.94h0s-.02.01-.03.02h0c-.43.04-2.14-2.56-3.88-5.95h0Z"/><path class="cls-31" d="m296.59,167.16s-2.12-5.29-4.57-8.09-26.45-3.75-30.39,0c-3.94,3.75-5.43,8.09-5.43,8.09v-1.17s1.82-5.15,5.43-8.09,27.29-2.78,30.34,0c3.06,2.78,4.62,8.09,4.62,8.09v1.17Z"/><g><ellipse class="cls-29" cx="296.56" cy="165.77" rx=".83" ry="2.02" transform="translate(-42.97 153.58) rotate(-27.15)"/><ellipse class="cls-29" cx="256.49" cy="165.63" rx="2.02" ry=".83" transform="translate(-12.22 310.59) rotate(-61.2)"/></g><g><path class="cls-19" d="m287.54,166.04h-22.38c-4.02,0-4.01,10.67-.23,11.28l7.8-.5c.94,0,2.83-3.65,3.18-3.94s1.52-.32,1.98,0,1.5,3.57,2.44,3.57l7.8.87c3.64-1.67,2.73-11.28-.59-11.28h0Z"/><path class="cls-18" d="m271.1,168.25c-2.47-.06-6.32-.03-8.43-.02-.35,1.16-.75,2.62-.55,4.04h9.03c1.78,0,3.28.35,4.67.71.03-.04.06-.08.09-.09.35-.29,1.52-.32,1.98,0,.12.08.28.36.46.73.71.15,1.42.25,2.16.26h9.78c.39-1.28.1-2.67.02-3.97-2.97,0-7.69-.07-9.95-.07-3.19,0-5.97-1.53-9.26-1.6h0Z"/></g><path class="cls-14" d="m274.47,175.05c-.1-2.3,4.29-2.59,4.81-.66.52,1.92-4.6,2.37-4.81.66-.17-1.36,0,0,0,0Z"/></g></g><g><path class="cls-2" d="m245.02,144.39c-12.1-20.24-65.22-56.65-106.94-63"/><polygon class="cls-25" points="144.34 74.68 140.52 81.77 142.97 89.43 126.17 80.44 144.34 74.68"/></g><g><path class="cls-2" d="m226.43,160.91c-31.05-5.16-86.7-30.94-107.57-61.88"/><polygon class="cls-25" points="221.53 152.82 223.98 160.48 220.17 167.57 238.33 161.8 221.53 152.82"/></g><g><path class="cls-2" d="m237.62,258.3c-21.64,22.86-74.13,54.58-111.45,54.58"/><polygon class="cls-25" points="228.17 257.83 235.9 260.08 239.64 267.2 245.02 248.92 228.17 257.83"/></g><g><path class="cls-2" d="m238.33,231.52c-23.55-1.28-83.44,22.39-112.03,53.43"/><polygon class="cls-25" points="124.24 276 127.98 283.13 135.71 285.38 118.86 294.28 124.24 276"/></g><text class="cls-27" transform="translate(154.68 117.71)"><tspan x="0" y="0">Obtain SSL</tspan><tspan class="cls-56" x="1.7" y="13.2">C</tspan><tspan class="cls-58" x="7.96" y="13.2">e</tspan><tspan class="cls-6" x="13.47" y="13.2">r</tspan><tspan class="cls-52" x="17.33" y="13.2">ti</tspan><tspan class="cls-7" x="23.54" y="13.2">fi</tspan><tspan class="cls-58" x="29.08" y="13.2">c</tspan><tspan class="cls-50" x="34.01" y="13.2">a</tspan><tspan class="cls-38" x="39.26" y="13.2">t</tspan><tspan class="cls-7" x="42.84" y="13.2">e</tspan></text><g><path class="cls-2" d="m237.47,182.26c-20.18-12.2-84.17-19.46-124-5.51"/><polygon class="cls-25" points="115.85 167.88 115.81 175.93 121.56 181.55 102.51 181.48 115.85 167.88"/></g><g><path class="cls-2" d="m228.79,205.56c-29.85,10-91.09,13.32-124.02-4.23"/><polygon class="cls-25" points="220.67 200.71 226.43 206.33 226.39 214.37 239.72 200.77 220.67 200.71"/></g><text class="cls-27" transform="translate(135.63 188.14)"><tspan class="cls-47" x="0" y="0">P</tspan><tspan class="cls-8" x="5.68" y="0">r</tspan><tspan class="cls-61" x="9.16" y="0">e</tspan><tspan class="cls-48" x="14.98" y="0">-</tspan><tspan class="cls-12" x="18.56" y="0">c</tspan><tspan x="23.42" y="0">onfigu</tspan><tspan class="cls-60" x="53.53" y="0">r</tspan><tspan x="57.01" y="0">ed</tspan><tspan class="cls-62" x="-5.53" y="13.2">W</tspan><tspan class="cls-58" x="3.42" y="13.2">eb </tspan><tspan class="cls-37" x="17.52" y="13.2">A</tspan><tspan x="24.22" y="13.2">pp </tspan><tspan class="cls-68" x="39.07" y="13.2">F</tspan><tspan x="44.14" y="13.2">i</tspan><tspan class="cls-60" x="46.71" y="13.2">r</tspan><tspan x="50.2" y="13.2">e</tspan><tspan class="cls-50" x="55.71" y="13.2">w</tspan><tspan class="cls-58" x="63.76" y="13.2">all</tspan></text><text class="cls-27" transform="translate(161.3 275.4)"><tspan x="0" y="0">SSO </tspan><tspan class="cls-46" x="20.76" y="0">L</tspan><tspan class="cls-52" x="25.79" y="0">o</tspan><tspan class="cls-38" x="31.83" y="0">g</tspan><tspan class="cls-58" x="37.92" y="0">in</tspan></text><g><line class="cls-3" x1="277.1" y1="17.73" x2="277.1" y2="115.79"/><polygon class="cls-14" points="269.69 110.17 277.1 113.32 284.5 110.17 277.1 127.73 269.69 110.17"/></g><text class="cls-27" transform="translate(252.61 9.21)"><tspan class="cls-64" x="0" y="0">W</tspan><tspan class="cls-58" x="8.94" y="0">eb </tspan><tspan class="cls-11" x="23.04" y="0">R</tspan><tspan x="29.01" y="0">equest</tspan></text><g><line class="cls-3" x1="277.1" y1="274.02" x2="277.1" y2="372.08"/><polygon class="cls-14" points="269.69 366.47 277.1 369.61 284.5 366.47 277.1 384.02 269.69 366.47"/></g><text class="cls-27" transform="translate(258.38 397.87)"><tspan class="cls-47" x="0" y="0">P</tspan><tspan class="cls-63" x="5.68" y="0">r</tspan><tspan class="cls-57" x="9.16" y="0">o</tspan><tspan class="cls-53" x="15.05" y="0">x</tspan><tspan class="cls-36" x="20.31" y="0">y </tspan><tspan class="cls-39" x="27.82" y="0">t</tspan><tspan x="31.39" y="0">o</tspan><tspan class="cls-37" x="9.11" y="13.2">A</tspan><tspan x="15.81" y="13.2">pp</tspan></text><g><text class="cls-26" transform="translate(331.36 169.5)"><tspan class="cls-5" x="0" y="0">O</tspan><tspan class="cls-54" x="8.15" y="0">ptional t</tspan><tspan class="cls-43" x="49.66" y="0">r</tspan><tspan x="53.72" y="0">aefik </tspan><tspan class="cls-37" x="79.99" y="0">r</tspan><tspan x="84.14" y="0">ules</tspan></text><text class="cls-27" transform="translate(331.36 192.57)"><tspan class="cls-11" x="0" y="0">R</tspan><tspan x="5.96" y="0">est</tspan><tspan class="cls-11" x="19.47" y="0">r</tspan><tspan x="23.11" y="0">i</tspan><tspan class="cls-66" x="25.68" y="0">c</tspan><tspan x="30.76" y="0">t </tspan><tspan class="cls-39" x="36.73" y="0">t</tspan><tspan x="40.3" y="0">o LAN</tspan></text><text class="cls-27" transform="translate(331.36 215.64)"><tspan class="cls-55" x="0" y="0">T</tspan><tspan class="cls-36" x="5.39" y="0">h</tspan><tspan class="cls-63" x="11.5" y="0">r</tspan><tspan class="cls-54" x="14.98" y="0">ottle t</tspan><tspan class="cls-67" x="42.38" y="0">r</tspan><tspan x="45.92" y="0">affic</tspan></text><text class="cls-27" transform="translate(331.36 238.71)"><tspan class="cls-11" x="0" y="0">R</tspan><tspan x="5.96" y="0">edi</tspan><tspan class="cls-8" x="20.25" y="0">r</tspan><tspan class="cls-36" x="23.74" y="0">e</tspan><tspan class="cls-65" x="29.25" y="0">c</tspan><tspan x="34.32" y="0">t </tspan><tspan class="cls-12" x="40.29" y="0">t</tspan><tspan x="43.87" y="0">o </tspan><tspan class="cls-37" x="52.24" y="0">e</tspan><tspan class="cls-66" x="57.72" y="0">x</tspan><tspan class="cls-12" x="62.95" y="0">t</tspan><tspan x="66.53" y="0">e</tspan><tspan class="cls-11" x="72.04" y="0">r</tspan><tspan x="75.68" y="0">nal add</tspan><tspan class="cls-8" x="109.72" y="0">r</tspan><tspan x="113.21" y="0">ess</tspan></text></g><text class="cls-26" transform="translate(31.46 125.03)"><tspan class="cls-67" x="0" y="0">St</tspan><tspan x="9.87" y="0">ep </tspan><tspan class="cls-35" x="24.47" y="0">C</tspan><tspan x="31.13" y="0">A</tspan></text><g><g id="layer1"><g id="g76"><g id="g360"><g class="cls-10"><g id="g362"><g id="g368"><g id="g370"><path id="path378" class="cls-9" d="m51.92,157.22c23.52.68,42.38,19.96,42.38,43.65h0c0,7.47-1.87,14.5-5.18,20.64h0l6.02,3.46c3.89-7.17,6.1-15.38,6.1-24.1h0c0-27.51-21.97-49.9-49.32-50.58h0v6.94ZM.03,200.86c0,8.72,2.21,16.93,6.1,24.1h0l6.02-3.46c-3.3-6.14-5.18-13.18-5.18-20.64h0c0-23.68,18.85-42.96,42.37-43.65h0v-6.94C21.99,150.96.03,173.35.03,200.86m9.57,0c0,22.66,18.37,41.04,41.04,41.04h0c22.66,0,41.04-18.37,41.04-41.04h0c0-22.66-18.37-41.04-41.04-41.04h0c-22.66,0-41.04,18.37-41.04,41.04m41.03,43.66c-15.73,0-29.51-8.31-37.2-20.79h0l-6.01,3.46c8.88,14.55,24.91,24.27,43.21,24.27h0c18.3,0,34.33-9.71,43.22-24.27h0l-6.02-3.45c-7.69,12.47-21.47,20.79-37.2,20.79"/></g></g></g></g></g><g id="g400"><g class="cls-40"><g id="g402"><g id="g408"><g id="g410"><path id="path418" class="cls-51" d="m51.04,166.14c-.53-.18-1.09-.28-1.68-.28h0c-.39,0-.78.04-1.16.13h0c-1.34.31-2.48,1.13-3.21,2.3h0c-.5.8-.76,1.7-.78,2.62h0c-2.49,2.02-4.02,5.08-4.02,8.44h0c0,1.58.35,3.14,1.01,4.57h0c-.72.24-1.37.68-1.89,1.27h0l-8.05,9.26c-.05.05-.09.11-.14.17h0l-8.37,9.62s-.09.1-.14.15h0l-.79.9c-.12.13-.22.26-.32.39h0c-1.52,2.08-2.31,4.54-2.31,7.13h0c0,2.41,1.97,4.37,4.38,4.37h0s11.7-.03,11.7-.03h0c.28,1.04.65,2.03,1.12,2.95h0c.66,1.31,1.92,2.18,3.34,2.37h0c.52,5.78,5.39,10.33,11.31,10.33h0c5.92,0,10.79-4.55,11.31-10.33h0c1.43-.18,2.7-1.06,3.36-2.37h0c.47-.92.84-1.91,1.12-2.95h0s11.64.03,11.64.03h0c1.16,0,2.27-.46,3.09-1.28h0c.82-.82,1.29-1.93,1.29-3.09h0c0-2.58-.79-5.05-2.31-7.13h0c-.09-.12-.19-.25-.3-.36h0l-.82-.93c-.05-.05-.09-.1-.14-.15h0l-8.37-9.62c-.04-.06-.09-.11-.14-.17h0l-8.05-9.26c-.5-.58-1.14-1-1.83-1.25h0c.67-1.43,1.02-3,1.02-4.59h0c0-3.37-1.53-6.45-4.04-8.46h0c-.02-.91-.29-1.8-.78-2.6h0c-.73-1.17-1.87-1.99-3.22-2.3h0c-.38-.09-.77-.13-1.16-.13h0c-.59,0-1.15.1-1.68.28m.53,1.55c.37-.13.75-.19,1.15-.19h0c.27,0,.53.03.79.09h0c.92.21,1.69.77,2.19,1.57h0c.33.54.52,1.15.53,1.77h0c.01.48.24.94.61,1.24h0c2.18,1.75,3.43,4.37,3.43,7.18h0c0,1.36-.29,2.66-.87,3.89h0c-.2.42-.21.9-.03,1.33h0c.18.43.53.76.96.91h0c.44.16.84.43,1.14.78h0l8.05,9.26s.12.15.14.17h0l8.37,9.62s.12.13.15.16h0l.82.93c.09.09.15.17.21.25h0c1.31,1.8,2,3.92,1.99,6.15h0c0,.73-.29,1.42-.81,1.93h0c-.52.51-1.2.8-1.93.8h0s-11.64-.03-11.64-.03h0c-.74,0-1.39.5-1.59,1.22h0c-.25.93-.58,1.82-1,2.63h0c-.41.81-1.2,1.37-2.1,1.48h0c-.77.1-1.36.71-1.43,1.48h0c-.45,4.95-4.7,8.83-9.68,8.83h0c-4.98,0-9.23-3.88-9.68-8.84h0c-.07-.77-.66-1.38-1.42-1.48h0c-.9-.12-1.68-.67-2.09-1.48h0c-.41-.82-.75-1.7-1-2.63h0c-.19-.72-.84-1.22-1.59-1.22h0s-11.71.03-11.71.03h0c-1.5,0-2.73-1.23-2.73-2.73h0c0-2.23.68-4.36,1.99-6.15h0c.06-.09.13-.17.2-.25h0s.82-.94.82-.94h0s.13-.13.14-.16h0l8.37-9.62s.11-.13.14-.17h0l8.05-9.26c.32-.36.72-.64,1.18-.79h0c.44-.15.8-.48.98-.91h0c.18-.43.17-.91-.02-1.34h0c-.57-1.22-.86-2.53-.86-3.87h0c0-2.8,1.24-5.41,3.41-7.16h0c.38-.3.6-.76.61-1.24h0c.01-.62.2-1.24.53-1.78h0c.5-.8,1.28-1.35,2.19-1.57h0c.26-.06.53-.09.79-.09h0c.39,0,.78.06,1.15.19h0c.17.06.35.09.53.09h0c.18,0,.36-.03.53-.09"/></g></g></g></g></g><g id="g422"><g id="g428"><path id="path430" class="cls-17" d="m45.16,199.28h0s2.08-4.5,2.08-4.5v-.02c0-.11,0-.22,0-.34,0-1.84-.76-3.51-1.97-4.72-.74-.73-1.66-1.3-2.67-1.63l-8.05,9.26h0s-8.6,9.89-8.6,9.89l-.02.03-.03.03-.85.97-.02.02c-.93,1.27-1.47,2.83-1.47,4.54l15.37-.03,2.48-5.37,3.75-8.12Zm-1.06,21.41c-.03.25-.04.5-.04.76,0,3.85,3.12,6.98,6.98,6.98s6.98-3.12,6.98-6.98c0-.26-.02-.51-.04-.76h-13.87Zm16.86-6.93l-.85-1.84h-18.2l-.85,1.84c-.33.72-1.01,1.22-1.78,1.34.2,1.07.53,2.09,1.01,3.04h21.51c.48-.94.81-1.96,1.01-3.03-.8-.1-1.5-.6-1.84-1.35m16.04-5.49l-.02-.02-.85-.97-.03-.03-.02-.03-8.6-9.88h0s-8.05-9.27-8.05-9.27c-1.01.33-1.93.9-2.67,1.63-1.22,1.21-1.97,2.88-1.97,4.72,0,.12,0,.23,0,.34v.02l2.08,4.5h0s3.75,8.13,3.75,8.13l2.48,5.37,15.37.03c0-1.7-.54-3.26-1.47-4.54m-25.99-16.68c.83,0,1.58-.3,2.18-.78.33-.74.75-1.44,1.27-2.08.04-.21.07-.43.07-.66,0-1.94-1.57-3.51-3.51-3.51s-3.51,1.57-3.51,3.51c0,.23.03.45.07.66.52.64.94,1.33,1.27,2.07.6.48,1.35.78,2.18.78m5.5-8.73c.65-1.01,1.03-2.2,1.03-3.49,0-2.9-1.9-5.35-4.52-6.18l.46-1.97c.1-.42-.17-.84-.58-.94s-.84.17-.94.58l-.47,2.04c-.14,0-.29-.02-.43-.02-.15,0-.3.01-.45.02l-.47-2.04c-.1-.42-.52-.68-.94-.58-.42.1-.68.52-.58.94l.46,1.98c-2.61.84-4.5,3.29-4.5,6.17,0,1.29.38,2.48,1.03,3.49h10.92Zm-13.41,26.51h15.84l-2.86-6.19h-10.12l-2.86,6.19Zm11.64-9.09l.16.35h-7.76l.16-.35s.03-.08.05-.12l2.03-4.39c.12-.25.19-.53.21-.8,0-.02,0-.04,0-.06.01-.16.01-.32.01-.48,0-.4-.04-.79-.09-1.18.49-.16,1-.25,1.54-.25s1,.09,1.47.23c-.05.4-.09.79-.09,1.2,0,.15,0,.3,0,.44.01.31.08.61.2.88,0,0,0,.02.01.03l2.03,4.39s.03.08.05.11"/></g></g></g></g><text class="cls-26" transform="translate(0 264.87)"><tspan class="cls-42" x="0" y="0">O</tspan><tspan class="cls-34" x="7.81" y="0">W</tspan><tspan x="16.98" y="0">ASP </tspan><tspan class="cls-4" x="38.75" y="0">Mo</tspan><tspan x="54.47" y="0">d</tspan><tspan class="cls-13" x="61.03" y="0">S</tspan><tspan class="cls-36" x="67.04" y="0">ecuri</tspan><tspan class="cls-69" x="91.42" y="0">t</tspan><tspan x="95.51" y="0">y</tspan><tspan class="cls-44" x="18.3" y="13.2">C</tspan><tspan x="24.64" y="13.2">o</tspan><tspan class="cls-49" x="30.99" y="13.2">r</tspan><tspan class="cls-36" x="35.08" y="13.2">e Rule </tspan><tspan class="cls-59" x="67.1" y="13.2">S</tspan><tspan x="73.12" y="13.2">et</tspan></text></g><g><path class="cls-14" d="m8.26,293.9l42.13,84.75,42.62-84.75H8.26Zm37.39,37.39h-4.99v-4.99h4.99v4.99Zm0-7.48h-4.99v-4.99h4.99v4.99Zm0-7.48h-4.99v-4.99h4.99v4.99Zm7.48,22.43h-4.99v-4.99h4.99v4.99Zm0-7.48h-4.99v-4.99h4.99v4.99Zm0-7.48h-4.99v-4.99h4.99v4.99Zm0-7.48h-4.99v-4.99h4.99v4.99Zm7.48,14.96h-4.99v-4.99h4.99v4.99Zm0-7.48h-4.99v-4.99h4.99v4.99Zm-4.99-7.48v-4.99h4.99v4.99h-4.99Z"/><text class="cls-26" transform="translate(12.03 389.73)"><tspan x="0" y="0">Hashi</tspan><tspan class="cls-56" x="27.62" y="0">c</tspan><tspan x="32.46" y="0">orp</tspan><tspan class="cls-45" x="49.57" y="0"> </tspan><tspan class="cls-41" x="51.38" y="0">V</tspan><tspan class="cls-36" x="57.91" y="0">ault</tspan></text></g><g><path class="cls-33" d="m38.8,90.05h0c.85.02,1.65-.42,2.09-1.15l2-3.58h0l1.64-2.86.08-.14h0l5.22-9.09c.65-1.13,2.1-1.53,3.24-.87.36.21.67.51.87.87l3.5,6.11c.42.74,1.21,1.19,2.06,1.19h0c1.32.03,2.41-1.02,2.44-2.34,0-.45-.11-.9-.35-1.29l-7.62-13.28c-.65-1.13-2.1-1.53-3.24-.87-.36.21-.67.51-.87.87l-13.11,22.84c-.66,1.14-.27,2.6.87,3.27.36.21.77.32,1.18.32Z"/><path class="cls-33" d="m77.74,94.83H30.57c-1.32,0-2.39-1.08-2.38-2.4,0-.42.11-.83.32-1.19l21.38-37.18c.65-1.13,2.1-1.53,3.24-.87.36.21.67.51.87.87l15.86,27.63c.66,1.15.26,2.62-.89,3.27-.36.2-.76.31-1.17.32h-18c-.85,0-1.64.46-2.06,1.2h0c-.66,1.14-.26,2.61.88,3.26.36.21.76.32,1.18.32h26.23c1.31,0,2.38-1.07,2.37-2.39,0-.42-.11-.83-.32-1.19l-22.19-38.72c-.42-.74-1.2-1.19-2.05-1.19h-3.75c-.85,0-1.64.45-2.06,1.19l-25.83,45c-.42.74-.42,1.65,0,2.39l1.88,3.26c.42.74,1.2,1.2,2.05,1.2h51.66c.85,0,1.64-.46,2.06-1.2h0c.66-1.14.26-2.61-.88-3.26-.37-.21-.8-.32-1.23-.32Z"/><path class="cls-33" d="m78.06,76.9l5,8.69c.65,1.13,2.1,1.53,3.24.87.36-.21.67-.51.87-.87h0c.43-.74.43-1.65,0-2.39l-5-8.69c-.66-1.14-2.11-1.53-3.25-.87-.36.21-.66.51-.87.87h0c-.42.74-.42,1.65.01,2.39Z"/><path class="cls-33" d="m62.7,50.15l1.63,2.83c.65,1.14,2.09,1.54,3.23.89.37-.21.68-.52.89-.89h0c.42-.74.42-1.65,0-2.39l-1.63-2.83c-.42-.74-1.21-1.19-2.06-1.19h0c-1.32,0-2.38,1.08-2.38,2.4,0,.41.11.82.32,1.18Z"/><path class="cls-33" d="m69.82,62.55l2.75,4.79c.66,1.14,2.11,1.53,3.25.87.36-.21.66-.51.87-.87h0c.42-.74.42-1.65,0-2.39l-2.75-4.79c-.65-1.14-2.09-1.54-3.23-.89-.37.21-.68.52-.89.89h0c-.42.74-.42,1.65,0,2.39Z"/><path class="cls-33" d="m72.25,104.39h-5.63c-1.32,0-2.38,1.08-2.38,2.4,0,.41.11.82.32,1.18h0c.43.73,1.21,1.19,2.06,1.19h5.63c.85,0,1.63-.46,2.06-1.19h0c.66-1.14.26-2.61-.88-3.26-.36-.21-.76-.32-1.18-.32Z"/><path class="cls-33" d="m55.64,104.39h0c-1.32,0-2.38,1.08-2.38,2.4,0,.41.11.82.32,1.18h0c.42.73,1.2,1.19,2.05,1.19h0c1.32,0,2.38-1.08,2.38-2.4,0-.41-.11-.82-.32-1.18h0c-.42-.73-1.2-1.18-2.05-1.19Z"/><path class="cls-33" d="m34.01,62.54l7.11-12.39c.66-1.14.26-2.61-.88-3.26-.36-.21-.76-.32-1.18-.32h0c-.85,0-1.63.45-2.05,1.19l-7.12,12.39c-.43.74-.43,1.65,0,2.39h0c.65,1.14,2.09,1.54,3.23.89.37-.21.68-.52.89-.89Z"/><path class="cls-33" d="m20.78,85.59l7.74-13.49c.43-.74.43-1.64,0-2.38h0c-.65-1.13-2.1-1.53-3.24-.87-.36.21-.67.51-.87.87l-7.74,13.49c-.43.74-.43,1.65,0,2.39h0c.65,1.13,2.1,1.52,3.24.87.36-.21.66-.51.87-.88Z"/><path class="cls-33" d="m44.67,104.39h-13.1c-1.32,0-2.38,1.08-2.38,2.4,0,.41.11.82.32,1.18h0c.42.73,1.2,1.19,2.05,1.19h13.1c1.32,0,2.38-1.08,2.38-2.4,0-.41-.11-.82-.32-1.18h0c-.42-.73-1.2-1.19-2.05-1.19Z"/></g></svg>