<?xml version="1.0" encoding="UTF-8"?><svg id="Layer_1" xmlns="http://www.w3.org/2000/svg" xmlns:xlink="http://www.w3.org/1999/xlink" viewBox="0 0 353.88 451.85"><defs><style>.cls-1,.cls-2,.cls-3{fill:none;}.cls-4{letter-spacing:.03em;}.cls-5{letter-spacing:.02em;}.cls-2{stroke:#010101;stroke-width:3px;}.cls-2,.cls-3{stroke-miterlimit:10;}.cls-6{letter-spacing:-.02em;}.cls-7{letter-spacing:-.01em;}.cls-8{fill:url(#linear-gradient);}.cls-9{clip-path:url(#clippath);}.cls-10{letter-spacing:0em;}.cls-11{fill:#faa31a;}.cls-12{fill:#010101;}.cls-13{fill:#f6d2a2;}.cls-14{fill:#ef9325;}.cls-15,.cls-16,.cls-17{fill:#fff;}.cls-18{fill:#e5e5e5;}.cls-19{fill:#d2e065;}.cls-20{fill:#c6b199;}.cls-21{fill:#c97929;}.cls-22{fill:#0f7f91;}.cls-23,.cls-24{fill:#231f20;}.cls-25{fill:#1b3d6f;}.cls-26{fill:#9b9b9b;}.cls-27{fill:#961a1e;}.cls-28{fill:#595a5a;}.cls-29{fill:#353635;}.cls-30{fill:#37abc7;}.cls-31{letter-spacing:0em;}.cls-32{letter-spacing:0em;}.cls-33{letter-spacing:0em;}.cls-34{letter-spacing:0em;}.cls-35{clip-path:url(#clippath-1);}.cls-36{letter-spacing:0em;}.cls-16{opacity:.5;}.cls-16,.cls-17{isolation:isolate;}.cls-17{opacity:.6;}.cls-37{letter-spacing:-.01em;}.cls-38{letter-spacing:-.02em;}.cls-39{letter-spacing:-.06em;}.cls-3{stroke:#231f20;stroke-width:2px;}.cls-40{letter-spacing:0em;}.cls-41{fill:url(#linear-gradient-2);}.cls-42{letter-spacing:0em;}.cls-43{letter-spacing:.02em;}.cls-44{letter-spacing:-.01em;}.cls-45{letter-spacing:-.01em;}.cls-24{font-family:MyriadPro-Regular, 'Myriad Pro';font-size:11px;}.cls-46{letter-spacing:0em;}.cls-47{letter-spacing:0em;}.cls-48{letter-spacing:-.03em;}.cls-49{letter-spacing:0em;}.cls-50{letter-spacing:-.03em;}.cls-51{letter-spacing:-.03em;}</style><clipPath id="clippath"><path class="cls-1" d="m56.34,182.27c23.52.68,42.38,19.96,42.38,43.65h0c0,7.47-1.87,14.5-5.18,20.64h0l6.02,3.46c3.89-7.17,6.1-15.38,6.1-24.1h0c0-27.51-21.97-49.9-49.32-50.58h0v6.94ZM4.45,225.92c0,8.72,2.21,16.93,6.1,24.1h0l6.02-3.46c-3.3-6.14-5.18-13.18-5.18-20.64h0c0-23.68,18.85-42.96,42.37-43.65h0v-6.94c-27.35.68-49.31,23.07-49.31,50.58m9.57,0c0,22.66,18.37,41.04,41.04,41.04h0c22.66,0,41.04-18.37,41.04-41.04h0c0-22.66-18.37-41.04-41.04-41.04h0c-22.66,0-41.04,18.37-41.04,41.04m41.03,43.66c-15.73,0-29.51-8.31-37.2-20.79h0l-6.01,3.46c8.88,14.55,24.91,24.27,43.21,24.27h0c18.3,0,34.33-9.71,43.22-24.27h0l-6.02-3.45c-7.69,12.47-21.47,20.79-37.2,20.79"/></clipPath><linearGradient id="linear-gradient" x1="-142.06" y1="523.57" x2="-141.67" y2="523.57" gradientTransform="translate(-149262.35 37426.08) rotate(91.17) scale(283.68 -283.68)" gradientUnits="userSpaceOnUse"><stop offset="0" stop-color="#2dabe2"/><stop offset="1" stop-color="#015c86"/></linearGradient><clipPath id="clippath-1"><path class="cls-1" d="m55.46,191.2c-.53-.18-1.09-.28-1.68-.28h0c-.39,0-.78.04-1.16.13h0c-1.34.31-2.48,1.13-3.21,2.3h0c-.5.8-.76,1.7-.78,2.62h0c-2.49,2.02-4.02,5.08-4.02,8.44h0c0,1.58.35,3.14,1.01,4.57h0c-.72.24-1.37.68-1.89,1.27h0l-8.05,9.26c-.05.05-.09.11-.14.17h0l-8.37,9.62s-.09.1-.14.15h0l-.79.9c-.12.13-.22.26-.32.39h0c-1.52,2.08-2.31,4.54-2.31,7.13h0c0,2.41,1.97,4.37,4.38,4.37h0s11.7-.03,11.7-.03h0c.28,1.04.65,2.03,1.12,2.95h0c.66,1.31,1.92,2.18,3.34,2.37h0c.52,5.78,5.39,10.33,11.31,10.33h0c5.92,0,10.79-4.55,11.31-10.33h0c1.43-.18,2.7-1.06,3.36-2.37h0c.47-.92.84-1.91,1.12-2.95h0s11.64.03,11.64.03h0c1.16,0,2.27-.46,3.09-1.28h0c.82-.82,1.29-1.93,1.29-3.09h0c0-2.58-.79-5.05-2.31-7.13h0c-.09-.12-.19-.25-.3-.36h0l-.82-.93c-.05-.05-.09-.1-.14-.15h0l-8.37-9.62c-.04-.06-.09-.11-.14-.17h0l-8.05-9.26c-.5-.58-1.14-1-1.83-1.25h0c.67-1.43,1.02-3,1.02-4.59h0c0-3.37-1.53-6.45-4.04-8.46h0c-.02-.91-.29-1.8-.78-2.6h0c-.73-1.17-1.87-1.99-3.22-2.3h0c-.38-.09-.77-.13-1.16-.13h0c-.59,0-1.15.1-1.68.28m.53,1.55c.37-.13.75-.19,1.15-.19h0c.27,0,.53.03.79.09h0c.92.21,1.69.77,2.19,1.57h0c.33.54.52,1.15.53,1.77h0c.01.48.24.94.61,1.24h0c2.18,1.75,3.43,4.37,3.43,7.18h0c0,1.36-.29,2.66-.87,3.89h0c-.2.42-.21.9-.03,1.33h0c.18.43.53.76.96.91h0c.44.16.84.43,1.14.78h0l8.05,9.26s.12.15.14.17h0l8.37,9.62s.12.13.15.16h0l.82.93c.09.09.15.17.21.25h0c1.31,1.8,2,3.92,1.99,6.15h0c0,.73-.29,1.42-.81,1.93h0c-.52.51-1.2.8-1.93.8h0s-11.64-.03-11.64-.03h0c-.74,0-1.39.5-1.59,1.22h0c-.25.93-.58,1.82-1,2.63h0c-.41.81-1.2,1.37-2.1,1.48h0c-.77.1-1.36.71-1.43,1.48h0c-.45,4.95-4.7,8.83-9.68,8.83h0c-4.98,0-9.23-3.88-9.68-8.84h0c-.07-.77-.66-1.38-1.42-1.48h0c-.9-.12-1.68-.67-2.09-1.48h0c-.41-.82-.75-1.7-1-2.63h0c-.19-.72-.84-1.22-1.59-1.22h0s-11.71.03-11.71.03h0c-1.5,0-2.73-1.23-2.73-2.73h0c0-2.23.68-4.36,1.99-6.15h0c.06-.09.13-.17.2-.25h0s.82-.94.82-.94h0s.13-.13.14-.16h0l8.37-9.62s.11-.13.14-.17h0l8.05-9.26c.32-.36.72-.64,1.18-.79h0c.44-.15.8-.48.98-.91h0c.18-.43.17-.91-.02-1.34h0c-.57-1.22-.86-2.53-.86-3.87h0c0-2.8,1.24-5.41,3.41-7.16h0c.38-.3.6-.76.61-1.24h0c.01-.62.2-1.24.53-1.78h0c.5-.8,1.28-1.35,2.19-1.57h0c.26-.06.53-.09.79-.09h0c.39,0,.78.06,1.15.19h0c.17.06.35.09.53.09h0c.18,0,.36-.03.53-.09"/></clipPath><linearGradient id="linear-gradient-2" x1="-143.16" y1="523.73" x2="-142.77" y2="523.73" gradientTransform="translate(-106809.44 31356.97) rotate(89.02) scale(205.03 -205.03)" gradientUnits="userSpaceOnUse"><stop offset="0" stop-color="#fff"/><stop offset="1" stop-color="#2dabe2"/></linearGradient></defs><path class="cls-12" d="m12.68,306.96l42.13,84.75,42.62-84.75H12.68Zm37.39,37.39h-4.99v-4.99h4.99v4.99Zm0-7.48h-4.99v-4.99h4.99v4.99Zm0-7.48h-4.99v-4.99h4.99v4.99Zm7.48,22.43h-4.99v-4.99h4.99v4.99Zm0-7.48h-4.99v-4.99h4.99v4.99Zm0-7.48h-4.99v-4.99h4.99v4.99Zm0-7.48h-4.99v-4.99h4.99v4.99Zm7.48,14.96h-4.99v-4.99h4.99v4.99Zm0-7.48h-4.99v-4.99h4.99v4.99Zm-4.99-7.48v-4.99h4.99v4.99h-4.99Z"/><g><path class="cls-11" d="m96.16,88h-6.37v-3.28c0-2.61-2.14-4.76-4.76-4.76s-4.76,2.14-4.76,4.76v3.28h-6.37v-3.28c0-6.17,5.03-11.12,11.12-11.12s11.12,5.03,11.12,11.12v3.28Z"/><path class="cls-25" d="m98.78,88h-27.47c-1.21,0-2.14.94-2.14,2.14v20.3c0,1.21.94,2.14,2.14,2.14h27.47c1.21,0,2.14-.94,2.14-2.14v-20.3c-.07-1.21-1.01-2.14-2.14-2.14Zm-12.4,13.34v2.75c0,.74-.6,1.41-1.41,1.41-.74,0-1.41-.6-1.41-1.41v-2.75c-.87-.47-1.41-1.41-1.41-2.48,0-1.54,1.27-2.81,2.81-2.81s2.81,1.27,2.81,2.81c.07,1.07-.54,2.01-1.41,2.48Z"/><path class="cls-11" d="m68.49,84.99h-6.63c-1.07,0-1.94-.87-1.94-1.94s.87-1.94,1.94-1.94h6.63c1.07,0,1.94.87,1.94,1.94s-.87,1.94-1.94,1.94Z"/><path class="cls-11" d="m73.18,74.53c-.4,0-.87-.13-1.21-.47l-5.23-4.29c-.8-.67-.94-1.88-.27-2.75.67-.8,1.88-.94,2.75-.27l5.23,4.29c.8.67.94,1.88.27,2.75-.47.47-1.01.74-1.54.74Z"/><path class="cls-11" d="m85.04,69.98c-1.07,0-1.94-.87-1.94-1.94v-6.7c0-1.07.87-1.94,1.94-1.94s1.94.87,1.94,1.94v6.7c0,1.07-.87,1.94-1.94,1.94Z"/><path class="cls-11" d="m96.83,74.53c-.54,0-1.14-.27-1.47-.74-.67-.8-.54-2.08.27-2.75l5.23-4.29c.8-.67,2.08-.54,2.75.27.67.8.54,2.08-.27,2.75l-5.23,4.29c-.4.34-.8.47-1.27.47Z"/><path class="cls-11" d="m108.16,84.99h-6.7c-1.07,0-1.94-.87-1.94-1.94s.87-1.94,1.94-1.94h6.7c1.07,0,1.94.87,1.94,1.94s-.87,1.94-1.94,1.94Z"/><path class="cls-25" d="m0,112.33v-21.64h5.23v17.09h8.38v4.56s-13.6,0-13.6,0Z"/><path class="cls-25" d="m30.89,104.89v1.21h-11.06c.07.4.2.8.4,1.14s.47.67.8.87c.34.27.74.47,1.14.6.4.13.87.2,1.27.2.8,0,1.47-.13,2.01-.47.54-.27,1.01-.67,1.34-1.14l3.48,2.21c-.74,1.07-1.68,1.81-2.81,2.41-1.14.54-2.55.87-4.09.87-1.14,0-2.21-.2-3.22-.54s-1.88-.87-2.68-1.54c-.74-.67-1.34-1.54-1.81-2.55s-.67-2.14-.67-3.42.2-2.35.67-3.35c.4-1.01,1.01-1.88,1.74-2.55s1.61-1.27,2.61-1.61c1.01-.4,2.08-.6,3.22-.6s2.14.2,3.08.54c.94.4,1.74.94,2.41,1.61.67.74,1.21,1.61,1.54,2.61.4,1.07.6,2.21.6,3.48Zm-4.62-1.88c0-.8-.27-1.47-.74-2.08-.47-.6-1.27-.87-2.28-.87-.47,0-.94.07-1.34.2-.4.13-.74.34-1.07.6s-.54.6-.74.94-.27.74-.34,1.14h6.5v.07Z"/><path class="cls-25" d="m38.93,100.87v5.83c0,.74.13,1.27.4,1.61s.74.54,1.47.54c.27,0,.54,0,.8-.07.27-.07.54-.13.67-.2l.07,3.69c-.34.13-.8.2-1.34.34-.54.07-1.07.13-1.61.13-1.01,0-1.88-.13-2.55-.4s-1.27-.6-1.68-1.07-.74-1.07-.87-1.74-.27-1.41-.27-2.21v-6.43h-2.48v-3.75h2.41v-4.02h4.96v4.02h3.55v3.75h-3.55Z"/><path class="cls-25" d="m58.7,101.61c-.4-.4-.87-.74-1.41-1.01-.54-.27-1.14-.4-1.74-.4-.47,0-.87.07-1.27.27s-.6.47-.6.94c0,.4.2.74.67.94s1.14.4,2.14.6c.6.13,1.14.27,1.74.54s1.07.54,1.54.87c.47.34.87.8,1.14,1.34.27.54.4,1.14.4,1.88,0,.94-.2,1.74-.6,2.41s-.87,1.21-1.54,1.61c-.6.4-1.34.67-2.08.87-.8.2-1.54.27-2.35.27-1.27,0-2.48-.2-3.62-.6-1.21-.4-2.21-1.01-2.95-1.74l2.81-2.95c.47.47,1.01.87,1.68,1.21s1.34.47,2.08.47c.4,0,.8-.07,1.21-.27.4-.2.6-.54.6-1.01s-.27-.8-.74-1.07c-.47-.2-1.27-.47-2.28-.67-.54-.13-1.07-.27-1.61-.47-.54-.2-1.01-.47-1.41-.8s-.74-.8-1.01-1.27c-.27-.54-.4-1.14-.4-1.81,0-.94.2-1.68.6-2.35s.87-1.14,1.47-1.54c.6-.4,1.27-.74,2.01-.87.74-.2,1.47-.27,2.21-.27,1.14,0,2.28.2,3.35.54s2.01.87,2.75,1.61l-2.81,2.75Z"/><path class="cls-25" d="m0,137.39v-21.64h14.54v4.42H5.03v4.09h8.98v4.15H5.03v4.49h10.05v4.49H0Z"/><path class="cls-25" d="m28.28,137.39v-8.31c0-.4-.07-.8-.13-1.21-.07-.4-.2-.74-.34-1.01s-.4-.54-.67-.67c-.27-.2-.67-.27-1.14-.27s-.87.07-1.21.27-.6.4-.87.74c-.2.34-.4.67-.54,1.07s-.2.8-.2,1.21v8.24h-5.03v-15.21h4.82v2.08h.07c.2-.34.4-.67.74-.94.27-.34.67-.6,1.01-.8.4-.2.8-.4,1.27-.54.47-.13.94-.2,1.47-.2,1.01,0,1.88.2,2.61.54.74.34,1.27.87,1.74,1.41.47.6.74,1.27.94,2.01.2.74.27,1.47.27,2.28v9.38h-4.82v-.07Z"/><path class="cls-25" d="m46.24,127.07c-.27-.34-.67-.67-1.14-.87s-1.01-.34-1.47-.34c-.54,0-1.01.13-1.41.34s-.8.47-1.07.87-.54.74-.74,1.21c-.2.47-.27.94-.27,1.47s.07,1.01.27,1.47c.13.47.4.87.74,1.21s.67.67,1.14.87.94.34,1.47.34,1.01-.07,1.54-.27c.47-.2.87-.47,1.21-.87l2.75,3.42c-.6.6-1.47,1.07-2.41,1.41-1.01.34-2.08.54-3.15.54-1.21,0-2.35-.2-3.35-.54-1.07-.34-1.94-.87-2.75-1.61-.74-.67-1.34-1.54-1.81-2.55s-.67-2.14-.67-3.42.2-2.35.67-3.35,1.07-1.88,1.81-2.55,1.68-1.27,2.75-1.61c1.07-.4,2.14-.54,3.35-.54.54,0,1.07.07,1.61.13.54.13,1.07.27,1.54.4.47.2.94.4,1.41.67.4.27.8.54,1.07.87l-3.08,3.28Z"/><path class="cls-25" d="m60.85,126.33c-.2-.07-.47-.13-.67-.13h-.6c-.67,0-1.21.13-1.68.34-.47.27-.8.54-1.07.87s-.47.74-.6,1.14c-.13.4-.2.74-.2,1.07v7.77h-5.03v-15.21h4.82v2.21h.07c.4-.8.94-1.41,1.68-1.88.74-.47,1.54-.74,2.48-.74h.6c.2,0,.34.07.47.07l-.27,4.49Z"/><path class="cls-25" d="m72.64,139.67c-.34.8-.67,1.47-1.01,2.14-.4.6-.8,1.14-1.34,1.61s-1.14.74-1.81,1.01c-.67.2-1.54.34-2.48.34-.47,0-.94,0-1.47-.07-.47-.07-.94-.13-1.27-.27l.54-4.22c.27.07.54.13.8.2.27.07.54.07.8.07.8,0,1.34-.2,1.68-.54s.67-.87.87-1.54l.47-1.27-6.37-14.94h5.56l3.42,9.78h.07l3.02-9.78h5.29l-6.77,17.49Z"/><path class="cls-25" d="m97.7,129.75c0,1.07-.13,2.08-.47,3.08s-.8,1.81-1.41,2.61c-.6.74-1.41,1.34-2.28,1.81-.87.47-1.94.67-3.08.67-.94,0-1.81-.2-2.68-.54-.8-.4-1.47-.87-1.94-1.54h-.07v9.05h-5.03v-22.52h4.76v1.88h.07c.47-.6,1.14-1.14,1.94-1.61s1.81-.67,2.95-.67c1.07,0,2.08.2,3.02.67.87.4,1.68,1.01,2.28,1.74s1.07,1.61,1.41,2.55c.34.74.54,1.74.54,2.81Zm-4.89,0c0-.47-.07-.94-.2-1.41s-.4-.87-.67-1.21-.67-.67-1.14-.87-.94-.34-1.54-.34-1.07.13-1.54.34-.8.54-1.14.87-.54.8-.74,1.27c-.2.47-.27.94-.27,1.41s.07.94.27,1.41c.2.47.4.87.74,1.27.34.34.67.67,1.14.87s.94.34,1.54.34,1.14-.13,1.54-.34c.47-.2.8-.54,1.14-.87.27-.34.54-.8.67-1.27.13-.54.2-1.01.2-1.47Z"/><path class="cls-25" d="m105.68,125.93v5.83c0,.74.13,1.27.4,1.61.27.34.74.54,1.47.54.27,0,.54,0,.8-.07s.54-.13.67-.2l.07,3.69c-.34.13-.8.2-1.34.34-.54.07-1.07.13-1.61.13-1.01,0-1.88-.13-2.55-.4-.67-.27-1.27-.6-1.68-1.07s-.74-1.07-.87-1.74-.27-1.41-.27-2.21v-6.43h-2.41v-3.75h2.41v-4.02h4.89v4.02h3.55v3.75s-3.55,0-3.55,0Z"/><path class="cls-25" d="m47.11,90.28c-1.47,0-2.68,1.07-2.68,2.48s1.01,2.41,2.48,2.41c.13,0,.27,0,.34-.07-.27,1.07-1.27,1.88-2.28,2.01h-.2v2.35h.27c1.21-.13,2.35-.67,3.22-1.47,1.14-1.07,1.74-2.68,1.74-4.56,0-1.81-1.21-3.15-2.88-3.15Z"/></g><g><g><path class="cls-12" d="m251.08,271.04c-1.08,0-1.93-.35-2.57-1.04-.64-.7-.96-1.78-.96-3.24v-8.1h-1.72c-.31,0-.55-.08-.72-.23-.16-.15-.24-.35-.24-.6s.08-.44.24-.59c.16-.16.39-.24.7-.24h1.73l.34-3.99c.02-.3.15-.56.39-.77.25-.22.53-.32.83-.32.26,0,.51.09.7.27.19.17.28.42.28.75v4.08h2.59c.31,0,.54.08.69.24.16.16.24.37.24.62,0,.53-.31.8-.93.8h-2.59v7.66c0,.97.14,1.66.41,2.1.27.42.7.63,1.29.63h.16l.96-.04h.08c.31,0,.55.1.73.29s.27.43.27.69c0,.23-.05.43-.15.58-.1.14-.26.24-.48.31-.21.07-.42.11-.63.13-.21.02-.48.03-.82.03h-.83Zm7.14-.2c-.35,0-.64-.1-.89-.31s-.37-.5-.37-.87v-11.6c0-.38.13-.66.38-.86.25-.21.57-.32.9-.31.35,0,.64.1.89.31.25.2.38.47.38.83v1.69c.21-.86.7-1.62,1.39-2.18.71-.59,1.56-.89,2.56-.89.3,0,.53.11.7.34.18.23.27.49.27.79,0,.26-.08.52-.24.73-.16.2-.39.3-.69.3-1.26,0-2.25.33-2.95.99-.69.66-1.04,1.53-1.04,2.63v7.24c0,.38-.13.67-.39.87-.25.21-.57.32-.9.31h0Zm34.39,0c-.33,0-.65-.11-.9-.32-.24-.22-.36-.53-.36-.93v-10.92h-1.84c-.31,0-.54-.08-.69-.23-.15-.16-.23-.37-.22-.59,0-.24.07-.44.22-.6s.38-.24.69-.24h1.84v-1.79c0-1.68.36-2.87,1.07-3.57.71-.71,1.7-1.07,2.95-1.07h1.71c.27,0,.48.1.63.3.16.19.24.41.24.67s-.08.49-.24.67c-.15.19-.36.28-.65.28h-1.19c-.4,0-.72.04-.94.11-.22.07-.43.22-.6.46-.17.23-.29.58-.35,1.03-.06.44-.08,1.04-.08,1.8v1.1h2.38c.31,0,.53.08.68.24.15.16.22.36.22.6,0,.54-.3.82-.9.82h-2.38v10.92c0,.39-.13.7-.38.93-.25.22-.55.32-.9.32h0Zm8.87-17.23c-.5,0-.89-.14-1.19-.42-.3-.29-.45-.67-.45-1.12s.15-.83.45-1.12c.31-.29.71-.44,1.21-.44s.88.15,1.18.44c.3.28.45.66.45,1.12s-.15.83-.45,1.12c-.3.28-.7.42-1.19.42Zm-.01,17.23c-.33,0-.64-.11-.89-.32-.24-.22-.36-.54-.36-.96v-11.43c0-.39.13-.7.38-.93.25-.22.58-.34.91-.34.32,0,.64.12.87.34.25.23.38.53.38.93v11.44c0,.39-.13.71-.39.94-.25.22-.57.34-.9.34h0Zm6.76-.01c-.33,0-.64-.11-.89-.32-.24-.22-.36-.54-.36-.96v-17.54c0-.39.13-.7.38-.93.25-.22.58-.34.91-.34.32,0,.64.12.87.34.25.23.38.53.38.93v10.76l6.38-5.85c.21-.18.43-.27.66-.27.3,0,.56.12.79.35.23.23.35.5.35.79,0,.26-.11.5-.34.72l-5.1,4.57,5.58,5.88c.2.19.31.46.31.73,0,.3-.12.57-.36.8-.23.23-.51.35-.82.35-.33,0-.61-.13-.84-.39l-6.61-7.03v6.14c0,.4-.13.72-.39.94-.25.22-.57.34-.9.34h0Z"/><path class="cls-30" d="m270.04,270.84c-1.62-.14-2.86-.63-3.76-1.48-.92-.87-1.31-2.01-1.15-3.33.18-1.53.9-2.6,2.17-3.23.98-.49,1.96-.67,3.55-.67,1.13,0,2.08.09,3.52.34l.69.11s.05-.11.12-.57c.12-.82.14-1.11.11-1.44-.04-.38-.09-.57-.23-.86-.38-.77-1.26-1.24-2.69-1.42-.59-.05-1.18-.06-1.76-.01-.69.08-1.07.18-1.92.5-.5.19-.5.19-.7.18-.34-.02-.58-.17-.73-.48-.06-.13-.07-.18-.07-.35,0-.26.07-.39.3-.61.52-.49,1.39-.9,2.28-1.08.56-.11.84-.14,1.59-.14.77,0,1.26.05,1.95.17,1.14.21,2,.58,2.65,1.15.19.17.49.49.6.68.04.06.08.11.09.11s.07-.07.14-.16c.99-1.26,2.65-1.97,4.6-1.97,1.38,0,2.66.35,3.61.98.76.5,1.37,1.28,1.62,2.04.14.44.16.6.17,1.24l-.03.79c-.22,1.25-.75,2.12-1.68,2.74-.74.5-1.67.79-2.9.9-.61.06-1.74.05-2.47-.01l-1.7-.22-1.21-.2c-.04.21-.07.41-.1.62-.07.36-.1.73-.09,1.1,0,.44,0,.51.06.71.17.65.54,1.08,1.22,1.41.66.33,1.36.47,2.41.49l.99-.03c.71-.08,1.03-.16,1.97-.5l.53-.17c.17-.01.34.02.49.09.26.15.43.42.45.72,0,.31-.11.5-.41.74-.74.59-1.68.95-2.8,1.07-.4.04-1.31.05-1.76.01-1.24-.11-2.11-.32-2.89-.71-.62-.31-1.08-.69-1.44-1.16l-.16-.22s-.06.06-.13.15c-.29.38-.75.8-1.19,1.08-.64.41-1.55.73-2.47.85-.47.04-.95.06-1.42.05h0Zm1.59-1.78c.75-.17,1.43-.54,1.92-1.07.44-.48.8-1.21,1.01-2,.11-.45.3-1.7.26-1.73-.02,0-.12-.03-.22-.04l-.67-.08-3.04-.25c-1.01.06-1.43.15-2.04.44-.31.15-.53.31-.7.52-.24.3-.41.65-.49,1.02-.08.44-.08.89-.01,1.33.12.42.26.66.57.98.43.44.99.72,1.69.87.36.07.35.07.95.06.43,0,.6-.02.78-.06h0Zm9.88-5.86c.63-.06,1.02-.15,1.5-.38.4-.19.63-.38.85-.7.32-.47.45-.92.44-1.59,0-.48-.04-.67-.21-1.01-.37-.76-1.22-1.31-2.35-1.49-.28-.05-1.04-.04-1.32.01-.56.1-1.02.29-1.44.57-.76.52-1.29,1.3-1.58,2.34-.12.41-.15.57-.25,1.28l-.1.65h.13s1.75.23,1.75.23l.86.1c.57.04,1.15.03,1.72,0h0Z"/></g><g><path class="cls-21" d="m262.02,205.95s4.6-4,18.21-4c12.49,0,16,2.83,19.56,4l-18.6,9.07-19.18-9.07Z"/><path class="cls-13" d="m260.07,217.99c.08,1.73,1.82.93,2.61.39.75-.51.96-.09,1.03-1.1.04-.67.12-1.34.08-2.01-1.13-.1-2.36.17-3.28.84-.48.35-1.37,1.45-.43,1.88"/><path class="cls-20" d="m260.07,217.99c.25-.09.52-.16.69-.39"/><path class="cls-30" d="m264.08,197.33c-6.65-1.87-1.7-10.31,3.63-6.84l-3.63,6.84Zm29.54-7.47c5.26-3.69,10.02,4.64,3.9,6.73l-3.9-6.73Z"/><path class="cls-13" d="m294.76,239.34c1.34.83,3.78,3.32,1.77,4.54-1.93,1.76-3.01-1.93-4.7-2.45.73-.99,1.65-1.89,2.92-2.09h0Zm-23.88,2.82c-1.57.24-2.45,1.66-3.76,2.37-1.23.73-1.7-.23-1.82-.43-.2-.09-.18.08-.48-.22-1.14-1.8,1.19-3.12,2.41-4.01,1.69-.34,2.75,1.12,3.65,2.29h0Z"/><path class="cls-22" d="m264.36,194.99c-.88-.46-1.52-1.09-.98-2.11.5-.94,1.42-.84,2.3-.37l-1.31,2.48Zm31.78-.88c.88-.46,1.52-1.09.98-2.11-.5-.94-1.42-.84-2.3-.37l1.31,2.48Z"/><path class="cls-13" d="m302.18,217.77c-.08,1.73-1.82.93-2.61.39-.75-.51-.96-.09-1.03-1.1-.04-.67-.12-1.34-.08-2.01,1.13-.1,2.36.17,3.28.84.48.35,1.37,1.45.43,1.88"/><path class="cls-20" d="m302.18,217.77c-.25-.09-.52-.16-.69-.39"/><path class="cls-30" d="m280.46,186.34c6.66,0,12.9.95,16.15,7.34,2.92,7.16,1.88,14.88,2.33,22.44.38,6.5,1.23,14-1.79,20.02-3.17,6.33-11.11,7.93-17.64,7.69-5.13-.18-11.34-1.86-14.23-6.54-3.4-5.49-1.79-13.67-1.54-19.78.29-7.24-1.96-14.51.42-21.59,2.47-7.35,9.14-9.01,16.31-9.58"/><path class="cls-15" d="m281.64,195.27c1.2,6.94,12.55,5.1,10.92-1.89-1.46-6.27-11.32-4.54-10.92,1.89m-13.57,1.12c1.55,6.04,11.23,4.49,10.87-1.57-.43-7.26-12.35-5.86-10.87,1.57m15.77,6.97c0,.93.22,1.83.03,2.87-.23.44-.68.48-1.07.66-.54-.08-1-.44-1.21-.94-.14-1.1.05-2.16.09-3.25l2.16.66Z"/><ellipse class="cls-12" cx="270.74" cy="195.41" rx="1.64" ry="1.77"/><ellipse class="cls-15" cx="271.48" cy="195.8" rx=".39" ry=".45"/><ellipse class="cls-12" cx="284.44" cy="194.96" rx="1.61" ry="1.77"/><ellipse class="cls-15" cx="285.17" cy="195.36" rx=".38" ry=".45"/><path class="cls-15" d="m279.17,203.5c-.71,1.73.4,5.18,2.33,2.63-.14-1.1.05-2.16.09-3.25l-2.42.62Z"/><path class="cls-13" d="m279.05,200.17c-1.33.11-2.42,1.69-1.73,2.94.92,1.65,2.96-.15,4.23.02,1.46.03,2.67,1.55,3.84.27,1.31-1.42-.56-2.79-2.03-3.41l-4.32.17Z"/><path class="cls-14" d="m262.02,205.95s.42,4.55.39,6.52,1.85.72,1.95,3.81-1.14,2.5-1.79,4.01-1.1,8.59-1.1,8.59c0,0,.67,1.32,2.76,2.51s5.46,1.86,8.37,1.73,4.99-.75,5.51-1.1,1.38-1.43,1.71-2.28,1-7.78.96-11.76-.7-7.64-.7-7.64l-18.05-4.4Z"/><path class="cls-18" d="m280.46,225.3c-8.58.96-18.53-1.69-18.53-1.69,0,0,.15-2.68.79-3.62,8.92,2.76,17.92,1.88,17.92,1.88.13,1.25.04,2.25-.18,3.43h0Zm-1.08,5.28c-8.58.96-17.91-1.79-17.91-1.79,0,0-.03-2.57.31-3.71,8.92,2.76,18.45,2.07,18.45,2.07-.08,1.36-.27,2.7-.84,3.43h0Z"/><path class="cls-14" d="m299.79,205.95l-.03,6.52c.03,1.96-1.14.72-1.24,3.81s1.16,2.5,1.82,4.01,1.11,8.59,1.11,8.59c0,0-.68,1.32-2.8,2.51s-5.52,1.86-8.47,1.73-5.05-.75-5.58-1.1-1.4-1.43-1.73-2.28-1.02-7.78-.97-11.76.71-7.64.71-7.64l17.18-4.4Z"/><path class="cls-18" d="m282.21,225.3c8.68.96,18.76-1.69,18.76-1.69,0,0-.15-2.68-.8-3.62-9.03,2.76-18.14,1.88-18.14,1.88-.14,1.25-.04,2.25.18,3.43h0Zm1.09,5.28c8.68.96,18.14-1.79,18.14-1.79,0,0,.03-2.57-.31-3.71-9.03,2.76-18.68,2.07-18.68,2.07.08,1.36.28,2.7.85,3.43h0Z"/><path class="cls-19" d="m303.25,214.31c-.27.51-.8.75-1.19.55l-.31-.16c-.39-.21-.49-.78-.22-1.29l6.08-11.45c.27-.51.8-.75,1.19-.55l.31.16c.39.21.49.78.22,1.29l-6.08,11.45Z"/><path class="cls-12" d="m300.38,219.72c-.16.3-.6.37-.99.16l-.31-.16c-.39-.21-.58-.61-.42-.91l2.85-5.37c.16-.3.6-.37.99-.16l.31.16c.39.21.58.61.42.91l-2.85,5.37Z"/><path class="cls-26" d="m302.92,213.24l-.31-.16c-.39-.21-.79-.22-.89-.03l-.18.34c.1-.19.5-.18.89.03l.31.16c.39.21.62.53.52.72l.18-.34c.1-.19-.13-.51-.52-.72Z"/><ellipse class="cls-13" cx="300.35" cy="216.35" rx="1.03" ry="1.34" transform="translate(-7.17 422.37) rotate(-69.59)"/><path class="cls-19" d="m259.22,214.49c.25.52.77.79,1.17.6l.32-.15c.4-.19.52-.76.28-1.28l-5.54-11.72c-.25-.52-.77-.79-1.17-.6l-.32.15c-.4.19-.52.76-.28,1.28l5.54,11.72Z"/><path class="cls-12" d="m261.84,220.03c.14.3.58.4.98.21l.32-.15c.4-.19.6-.59.46-.89l-2.6-5.5c-.14-.3-.58-.4-.98-.21l-.32.15c-.4.19-.6.59-.46.89l2.6,5.5Z"/><path class="cls-26" d="m259.6,213.44l.32-.15c.4-.19.8-.18.89.02l.17.35c-.09-.2-.49-.2-.89-.02l-.32.15c-.4.19-.65.5-.55.7l-.17-.35c-.09-.2.15-.51.55-.7h0Z"/><ellipse class="cls-13" cx="262.29" cy="216.5" rx="1.34" ry="1.03" transform="translate(-59.04 105.09) rotate(-20.41)"/><path class="cls-27" d="m264.86,199.93c-.26.48-.89.64-1.39.37l-.58-.32c-.51-.28-.7-.89-.44-1.37l6.04-10.98c.26-.48.89-.64,1.39-.37l.58.32c.51.28.64.8.44,1.37-2.12,6.1-6.04,10.98-6.04,10.98Z"/><path class="cls-28" d="m266.46,193.66c1.84-3.34,3.04-6.21,2.76-6.54h0s-.02-.02-.02-.02h0c-2.82-1.53-6.63-.02-8.5,3.39s-1.12,7.43,1.68,8.99h0s.02.01.03.02h0c.43.06,2.21-2.5,4.05-5.84h0Z"/><path class="cls-27" d="m296.75,199.95c.25.49.87.67,1.38.41l.59-.3c.51-.26.73-.87.48-1.36l-5.72-11.15c-.25-.49-.87-.67-1.38-.41l-.59.3c-.51.26-.66.78-.48,1.36,1.94,6.16,5.72,11.15,5.72,11.15Z"/><path class="cls-28" d="m295.34,193.64c-1.74-3.39-2.87-6.29-2.57-6.61h0s.02-.02.02-.02h0c2.87-1.45,6.62.17,8.4,3.64,1.78,3.46.91,7.45-1.94,8.94h0s-.02.01-.03.02h0c-.43.04-2.14-2.56-3.88-5.95h0Z"/><path class="cls-29" d="m301.01,192.21s-2.12-5.29-4.57-8.09-26.45-3.75-30.39,0c-3.94,3.75-5.43,8.09-5.43,8.09v-1.17s1.82-5.15,5.43-8.09,27.29-2.78,30.34,0c3.06,2.78,4.62,8.09,4.62,8.09v1.17Z"/><g><ellipse class="cls-27" cx="300.97" cy="190.82" rx=".83" ry="2.02" transform="translate(-53.91 158.36) rotate(-27.15)"/><ellipse class="cls-27" cx="260.91" cy="190.68" rx="2.02" ry=".83" transform="translate(-31.89 327.44) rotate(-61.2)"/></g><g><path class="cls-17" d="m291.96,191.09h-22.38c-4.02,0-4.01,10.67-.23,11.28l7.8-.5c.94,0,2.83-3.65,3.18-3.94s1.52-.32,1.98,0,1.5,3.57,2.44,3.57l7.8.87c3.64-1.67,2.73-11.28-.59-11.28h0Z"/><path class="cls-16" d="m275.52,193.3c-2.47-.06-6.32-.03-8.43-.02-.35,1.16-.75,2.62-.55,4.04h9.03c1.78,0,3.28.35,4.67.71.03-.04.06-.08.09-.09.35-.29,1.52-.32,1.98,0,.12.08.28.36.46.73.71.15,1.42.25,2.16.26h9.78c.39-1.28.1-2.67.02-3.97-2.97,0-7.69-.07-9.95-.07-3.19,0-5.97-1.53-9.26-1.6h0Z"/></g><path class="cls-12" d="m278.89,200.1c-.1-2.3,4.29-2.59,4.81-.66.52,1.92-4.6,2.37-4.81.66-.17-1.36,0,0,0,0Z"/></g></g><g id="layer1"><g id="g76"><g id="g360"><g class="cls-9"><g id="g362"><g id="g368"><g id="g370"><path id="path378" class="cls-8" d="m56.34,182.27c23.52.68,42.38,19.96,42.38,43.65h0c0,7.47-1.87,14.5-5.18,20.64h0l6.02,3.46c3.89-7.17,6.1-15.38,6.1-24.1h0c0-27.51-21.97-49.9-49.32-50.58h0v6.94ZM4.45,225.92c0,8.72,2.21,16.93,6.1,24.1h0l6.02-3.46c-3.3-6.14-5.18-13.18-5.18-20.64h0c0-23.68,18.85-42.96,42.37-43.65h0v-6.94c-27.35.68-49.31,23.07-49.31,50.58m9.57,0c0,22.66,18.37,41.04,41.04,41.04h0c22.66,0,41.04-18.37,41.04-41.04h0c0-22.66-18.37-41.04-41.04-41.04h0c-22.66,0-41.04,18.37-41.04,41.04m41.03,43.66c-15.73,0-29.51-8.31-37.2-20.79h0l-6.01,3.46c8.88,14.55,24.91,24.27,43.21,24.27h0c18.3,0,34.33-9.71,43.22-24.27h0l-6.02-3.45c-7.69,12.47-21.47,20.79-37.2,20.79"/></g></g></g></g></g><g id="g400"><g class="cls-35"><g id="g402"><g id="g408"><g id="g410"><path id="path418" class="cls-41" d="m55.46,191.2c-.53-.18-1.09-.28-1.68-.28h0c-.39,0-.78.04-1.16.13h0c-1.34.31-2.48,1.13-3.21,2.3h0c-.5.8-.76,1.7-.78,2.62h0c-2.49,2.02-4.02,5.08-4.02,8.44h0c0,1.58.35,3.14,1.01,4.57h0c-.72.24-1.37.68-1.89,1.27h0l-8.05,9.26c-.05.05-.09.11-.14.17h0l-8.37,9.62s-.09.1-.14.15h0l-.79.9c-.12.13-.22.26-.32.39h0c-1.52,2.08-2.31,4.54-2.31,7.13h0c0,2.41,1.97,4.37,4.38,4.37h0s11.7-.03,11.7-.03h0c.28,1.04.65,2.03,1.12,2.95h0c.66,1.31,1.92,2.18,3.34,2.37h0c.52,5.78,5.39,10.33,11.31,10.33h0c5.92,0,10.79-4.55,11.31-10.33h0c1.43-.18,2.7-1.06,3.36-2.37h0c.47-.92.84-1.91,1.12-2.95h0s11.64.03,11.64.03h0c1.16,0,2.27-.46,3.09-1.28h0c.82-.82,1.29-1.93,1.29-3.09h0c0-2.58-.79-5.05-2.31-7.13h0c-.09-.12-.19-.25-.3-.36h0l-.82-.93c-.05-.05-.09-.1-.14-.15h0l-8.37-9.62c-.04-.06-.09-.11-.14-.17h0l-8.05-9.26c-.5-.58-1.14-1-1.83-1.25h0c.67-1.43,1.02-3,1.02-4.59h0c0-3.37-1.53-6.45-4.04-8.46h0c-.02-.91-.29-1.8-.78-2.6h0c-.73-1.17-1.87-1.99-3.22-2.3h0c-.38-.09-.77-.13-1.16-.13h0c-.59,0-1.15.1-1.68.28m.53,1.55c.37-.13.75-.19,1.15-.19h0c.27,0,.53.03.79.09h0c.92.21,1.69.77,2.19,1.57h0c.33.54.52,1.15.53,1.77h0c.01.48.24.94.61,1.24h0c2.18,1.75,3.43,4.37,3.43,7.18h0c0,1.36-.29,2.66-.87,3.89h0c-.2.42-.21.9-.03,1.33h0c.18.43.53.76.96.91h0c.44.16.84.43,1.14.78h0l8.05,9.26s.12.15.14.17h0l8.37,9.62s.12.13.15.16h0l.82.93c.09.09.15.17.21.25h0c1.31,1.8,2,3.92,1.99,6.15h0c0,.73-.29,1.42-.81,1.93h0c-.52.51-1.2.8-1.93.8h0s-11.64-.03-11.64-.03h0c-.74,0-1.39.5-1.59,1.22h0c-.25.93-.58,1.82-1,2.63h0c-.41.81-1.2,1.37-2.1,1.48h0c-.77.1-1.36.71-1.43,1.48h0c-.45,4.95-4.7,8.83-9.68,8.83h0c-4.98,0-9.23-3.88-9.68-8.84h0c-.07-.77-.66-1.38-1.42-1.48h0c-.9-.12-1.68-.67-2.09-1.48h0c-.41-.82-.75-1.7-1-2.63h0c-.19-.72-.84-1.22-1.59-1.22h0s-11.71.03-11.71.03h0c-1.5,0-2.73-1.23-2.73-2.73h0c0-2.23.68-4.36,1.99-6.15h0c.06-.09.13-.17.2-.25h0s.82-.94.82-.94h0s.13-.13.14-.16h0l8.37-9.62s.11-.13.14-.17h0l8.05-9.26c.32-.36.72-.64,1.18-.79h0c.44-.15.8-.48.98-.91h0c.18-.43.17-.91-.02-1.34h0c-.57-1.22-.86-2.53-.86-3.87h0c0-2.8,1.24-5.41,3.41-7.16h0c.38-.3.6-.76.61-1.24h0c.01-.62.2-1.24.53-1.78h0c.5-.8,1.28-1.35,2.19-1.57h0c.26-.06.53-.09.79-.09h0c.39,0,.78.06,1.15.19h0c.17.06.35.09.53.09h0c.18,0,.36-.03.53-.09"/></g></g></g></g></g><g id="g422"><g id="g428"><path id="path430" class="cls-15" d="m49.58,224.33h0s2.08-4.5,2.08-4.5v-.02c0-.11,0-.22,0-.34,0-1.84-.76-3.51-1.97-4.72-.74-.73-1.66-1.3-2.67-1.63l-8.05,9.26h0s-8.6,9.89-8.6,9.89l-.02.03-.03.03-.85.97-.02.02c-.93,1.27-1.47,2.83-1.47,4.54l15.37-.03,2.48-5.37,3.75-8.12Zm-1.06,21.41c-.03.25-.04.5-.04.76,0,3.85,3.12,6.98,6.98,6.98s6.98-3.12,6.98-6.98c0-.26-.02-.51-.04-.76h-13.87Zm16.86-6.93l-.85-1.84h-18.2l-.85,1.84c-.33.72-1.01,1.22-1.78,1.34.2,1.07.53,2.09,1.01,3.04h21.51c.48-.94.81-1.96,1.01-3.03-.8-.1-1.5-.6-1.84-1.35m16.04-5.49l-.02-.02-.85-.97-.03-.03-.02-.03-8.6-9.88h0s-8.05-9.27-8.05-9.27c-1.01.33-1.93.9-2.67,1.63-1.22,1.21-1.97,2.88-1.97,4.72,0,.12,0,.23,0,.34v.02l2.08,4.5h0s3.75,8.13,3.75,8.13l2.48,5.37,15.37.03c0-1.7-.54-3.26-1.47-4.54m-25.99-16.68c.83,0,1.58-.3,2.18-.78.33-.74.75-1.44,1.27-2.08.04-.21.07-.43.07-.66,0-1.94-1.57-3.51-3.51-3.51s-3.51,1.57-3.51,3.51c0,.23.03.45.07.66.52.64.94,1.33,1.27,2.07.6.48,1.35.78,2.18.78m5.5-8.73c.65-1.01,1.03-2.2,1.03-3.49,0-2.9-1.9-5.35-4.52-6.18l.46-1.97c.1-.42-.17-.84-.58-.94s-.84.17-.94.58l-.47,2.04c-.14,0-.29-.02-.43-.02-.15,0-.3.01-.45.02l-.47-2.04c-.1-.42-.52-.68-.94-.58-.42.1-.68.52-.58.94l.46,1.98c-2.61.84-4.5,3.29-4.5,6.17,0,1.29.38,2.48,1.03,3.49h10.92Zm-13.41,26.51h15.84l-2.86-6.19h-10.12l-2.86,6.19Zm11.64-9.09l.16.35h-7.76l.16-.35s.03-.08.05-.12l2.03-4.39c.12-.25.19-.53.21-.8,0-.02,0-.04,0-.06.01-.16.01-.32.01-.48,0-.4-.04-.79-.09-1.18.49-.16,1-.25,1.54-.25s1,.09,1.47.23c-.05.4-.09.79-.09,1.2,0,.15,0,.3,0,.44.01.31.08.61.2.88,0,0,0,.02.01.03l2.03,4.39s.03.08.05.11"/></g></g></g></g><g><path class="cls-3" d="m249.44,169.44c-12.1-20.24-65.22-56.65-106.94-63"/><polygon class="cls-23" points="148.75 99.73 144.94 106.82 147.39 114.48 130.59 105.49 148.75 99.73"/></g><g><path class="cls-3" d="m230.85,185.96c-31.05-5.16-86.7-30.94-107.57-61.88"/><polygon class="cls-23" points="225.95 177.87 228.4 185.53 224.59 192.62 242.75 186.85 225.95 177.87"/></g><g><path class="cls-3" d="m242.04,283.35c-21.64,22.86-74.13,54.58-111.45,54.58"/><polygon class="cls-23" points="232.59 282.88 240.32 285.13 244.06 292.26 249.44 273.98 232.59 282.88"/></g><g><path class="cls-3" d="m242.75,256.57c-23.55-1.28-83.44,22.39-112.03,53.43"/><polygon class="cls-23" points="128.66 301.06 132.4 308.18 140.12 310.44 123.27 319.34 128.66 301.06"/></g><text class="cls-24" transform="translate(159.1 142.76)"><tspan x="0" y="0">Obtain SSL</tspan><tspan class="cls-44" x="1.7" y="13.2">C</tspan><tspan class="cls-46" x="7.96" y="13.2">e</tspan><tspan class="cls-5" x="13.47" y="13.2">r</tspan><tspan class="cls-42" x="17.33" y="13.2">ti</tspan><tspan class="cls-6" x="23.54" y="13.2">fi</tspan><tspan class="cls-46" x="29.08" y="13.2">c</tspan><tspan class="cls-40" x="34.01" y="13.2">a</tspan><tspan class="cls-33" x="39.26" y="13.2">t</tspan><tspan class="cls-6" x="42.84" y="13.2">e</tspan></text><g><path class="cls-3" d="m241.89,207.31c-20.18-12.2-84.17-19.46-124-5.51"/><polygon class="cls-23" points="120.27 192.93 120.22 200.98 125.98 206.6 106.93 206.54 120.27 192.93"/></g><g><path class="cls-3" d="m233.21,230.61c-29.85,10-91.09,13.32-124.02-4.23"/><polygon class="cls-23" points="225.09 225.76 230.85 231.38 230.8 239.43 244.14 225.82 225.09 225.76"/></g><text class="cls-24" transform="translate(147.25 213.19)"><tspan x="0" y="0">O</tspan><tspan class="cls-39" x="7.58" y="0">W</tspan><tspan x="16.26" y="0">ASP CRS</tspan><tspan class="cls-48" x="-12.73" y="13.2">W</tspan><tspan class="cls-46" x="-3.79" y="13.2">eb </tspan><tspan class="cls-32" x="10.31" y="13.2">A</tspan><tspan x="17.01" y="13.2">pp </tspan><tspan class="cls-51" x="31.86" y="13.2">F</tspan><tspan x="36.93" y="13.2">i</tspan><tspan class="cls-47" x="39.51" y="13.2">r</tspan><tspan x="42.99" y="13.2">e</tspan><tspan class="cls-40" x="48.5" y="13.2">w</tspan><tspan class="cls-46" x="56.56" y="13.2">all</tspan></text><text class="cls-24" transform="translate(165.72 300.45)"><tspan x="0" y="0">SSO </tspan><tspan class="cls-37" x="20.76" y="0">L</tspan><tspan class="cls-42" x="25.79" y="0">o</tspan><tspan class="cls-33" x="31.83" y="0">g</tspan><tspan class="cls-46" x="37.92" y="0">in</tspan></text><g><line class="cls-2" x1="281.52" x2="281.52" y2="134.87"/><polygon class="cls-12" points="270.41 126.44 281.52 131.16 292.62 126.44 281.52 152.78 270.41 126.44"/></g><text class="cls-24" transform="translate(293.6 63.89)"><tspan class="cls-50" x="0" y="0">W</tspan><tspan class="cls-46" x="8.94" y="0">eb </tspan><tspan class="cls-10" x="23.04" y="0">R</tspan><tspan x="29.01" y="0">equest</tspan></text><g><line class="cls-2" x1="281.52" y1="299.07" x2="281.52" y2="433.94"/><polygon class="cls-12" points="270.41 425.52 281.52 430.24 292.62 425.52 281.52 451.85 270.41 425.52"/></g><text class="cls-24" transform="translate(293.6 362.96)"><tspan class="cls-38" x="0" y="0">P</tspan><tspan class="cls-49" x="5.68" y="0">r</tspan><tspan class="cls-45" x="9.16" y="0">o</tspan><tspan class="cls-43" x="15.05" y="0">x</tspan><tspan class="cls-31" x="20.31" y="0">y </tspan><tspan class="cls-34" x="27.82" y="0">t</tspan><tspan x="31.39" y="0">o</tspan><tspan class="cls-36" x="4.14" y="13.2">S</tspan><tspan x="9.63" y="13.2">e</tspan><tspan class="cls-4" x="15.14" y="13.2">r</tspan><tspan class="cls-7" x="19.01" y="13.2">v</tspan><tspan x="24.19" y="13.2">er</tspan></text></svg>